<svg width="84" height="84" viewBox="0 0 84 84" fill="none" xmlns="http://www.w3.org/2000/svg">
<rect x="1" y="1" width="82" height="82" rx="20" stroke="#0EC277" stroke-width="2"/>
<path d="M51 59.0004C48.493 59.6281 45.3768 60 42 60C38.6232 60 35.507 59.6281 33 59.0004M54 50.8611C51.0682 51.9683 46.7788 52.6667 42 52.6667C37.2212 52.6667 32.9318 51.9683 30 50.8611M27 41.3357C29.8629 43.1197 35.5062 44.3333 42 44.3333C48.4938 44.3333 54.1371 43.1197 57 41.3357M60 30C60 33.3137 51.9411 36 42 36C32.0589 36 24 33.3137 24 30C24 26.6863 32.0589 24 42 24C51.9411 24 60 26.6863 60 30Z" stroke="#0EC277" stroke-width="3" stroke-linecap="round" stroke-linejoin="round"/>
</svg>
