<svg width="185" height="26" viewBox="0 0 185 26" fill="none" xmlns="http://www.w3.org/2000/svg">
<path d="M13.6523 19.4004C13.6523 19.7715 13.5547 20.1328 13.3594 20.4844C13.1641 20.8164 12.7051 21.207 11.9824 21.6562C11.2598 22.1055 10.459 22.5352 9.58008 22.9453C8.70117 23.3359 7.85156 23.6777 7.03125 23.9707C6.21094 24.2441 5.60547 24.3809 5.21484 24.3809C4.94141 24.3809 4.61914 24.3125 4.24805 24.1758C3.87695 24.0586 3.50586 23.9023 3.13477 23.707C2.76367 23.5117 2.42188 23.2871 2.10938 23.0332C1.81641 22.7793 1.60156 22.5352 1.46484 22.3008C1.38672 22.1641 1.30859 21.8906 1.23047 21.4805C1.17188 21.0703 1.11328 20.5918 1.05469 20.0449C1.01562 19.498 0.976563 18.9219 0.9375 18.3164C0.898438 17.6914 0.859375 17.1055 0.820312 16.5586C0.800781 15.9922 0.78125 15.4941 0.761719 15.0645C0.761719 14.6348 0.761719 14.3223 0.761719 14.127C0.761719 13.4043 0.78125 12.5742 0.820312 11.6367C0.878906 10.6992 0.976562 9.76172 1.11328 8.82422C1.25 7.86719 1.44531 6.95898 1.69922 6.09961C1.97266 5.2207 2.33398 4.47852 2.7832 3.87305C2.91992 3.69727 3.19336 3.51172 3.60352 3.31641C4.01367 3.12109 4.49219 2.93555 5.03906 2.75977C5.60547 2.58398 6.21094 2.41797 6.85547 2.26172C7.5 2.10547 8.11523 1.97852 8.70117 1.88086C9.30664 1.76367 9.85352 1.67578 10.3418 1.61719C10.8301 1.53906 11.2012 1.5 11.4551 1.5C11.748 1.5 12.0215 1.56836 12.2754 1.70508C12.5488 1.82227 12.7734 1.98828 12.9492 2.20312C13.1445 2.41797 13.291 2.66211 13.3887 2.93555C13.5059 3.18945 13.5645 3.46289 13.5645 3.75586C13.5645 4.00977 13.5254 4.22461 13.4473 4.40039C13.3887 4.57617 13.291 4.77148 13.1543 4.98633C12.959 5.24023 12.5488 5.54297 11.9238 5.89453C11.2988 6.24609 10.6152 6.59766 9.87305 6.94922C9.15039 7.28125 8.44727 7.58398 7.76367 7.85742C7.09961 8.13086 6.63086 8.32617 6.35742 8.44336C6.2793 8.89258 6.19141 9.35156 6.09375 9.82031C6.01562 10.2695 5.95703 10.7285 5.91797 11.1973C6.52344 10.8848 7.20703 10.5918 7.96875 10.3184C8.73047 10.0449 9.45312 9.9082 10.1367 9.9082C11.5234 9.9082 12.2168 10.5918 12.2168 11.959C12.2168 12.291 12.1484 12.584 12.0117 12.8379C11.8945 13.0918 11.7285 13.3164 11.5137 13.5117C11.3184 13.707 11.084 13.8828 10.8105 14.0391C10.5566 14.1758 10.3027 14.3125 10.0488 14.4492C9.42383 14.7812 8.76953 15.0742 8.08594 15.3281C7.40234 15.5625 6.71875 15.7969 6.03516 16.0312C5.99609 16.1875 5.95703 16.3633 5.91797 16.5586C5.87891 16.7344 5.85938 16.9102 5.85938 17.0859C5.85938 17.3594 5.87891 17.6328 5.91797 17.9062C5.95703 18.1797 5.99609 18.4531 6.03516 18.7266C6.26953 18.6484 6.64062 18.5215 7.14844 18.3457C7.67578 18.1699 8.22266 17.9941 8.78906 17.8184C9.35547 17.6426 9.90234 17.4961 10.4297 17.3789C10.957 17.2422 11.3477 17.1738 11.6016 17.1738C11.8945 17.1738 12.168 17.2422 12.4219 17.3789C12.6758 17.4961 12.8906 17.6621 13.0664 17.877C13.2422 18.0723 13.3789 18.3066 13.4766 18.5801C13.5938 18.8535 13.6523 19.127 13.6523 19.4004ZM27.4219 19.8691C27.4219 20.2207 27.4023 20.6797 27.3633 21.2461C27.3438 21.8125 27.2656 22.3691 27.1289 22.916C26.9922 23.4434 26.7773 23.9023 26.4844 24.293C26.1914 24.6836 25.7812 24.8789 25.2539 24.8789C24.5312 24.8789 23.9746 24.6445 23.584 24.1758C23.1934 23.707 23.0078 23.1211 23.0273 22.418C22.4023 22.9648 21.6895 23.3945 20.8887 23.707C20.1074 24.0195 19.3066 24.1758 18.4863 24.1758C17.9199 24.1758 17.3828 24.0391 16.875 23.7656C16.3672 23.4922 15.918 23.1406 15.5273 22.7109C15.1367 22.2812 14.8242 21.8027 14.5898 21.2754C14.3555 20.7285 14.2383 20.1914 14.2383 19.6641C14.2383 18.7266 14.5215 17.9062 15.0879 17.2031C15.6738 16.5 16.3867 15.9043 17.2266 15.416C18.0664 14.9082 18.9551 14.5078 19.8926 14.2148C20.8496 13.9219 21.6992 13.7266 22.4414 13.6289C22.4414 13.5312 22.4414 13.4434 22.4414 13.3652C22.4609 13.2871 22.4707 13.1992 22.4707 13.1016C22.4707 12.4961 22.3047 12.0078 21.9727 11.6367C21.6406 11.2656 21.1719 11.0801 20.5664 11.0801C20.0781 11.0801 19.6582 11.168 19.3066 11.3438C18.9551 11.5 18.623 11.6855 18.3105 11.9004C17.998 12.0957 17.6855 12.2812 17.373 12.457C17.0605 12.6133 16.709 12.6914 16.3184 12.6914C15.8887 12.6914 15.5176 12.5547 15.2051 12.2812C14.9121 12.0078 14.7656 11.6562 14.7656 11.2266C14.7656 10.582 14.9512 9.99609 15.3223 9.46875C15.7129 8.94141 16.1914 8.50195 16.7578 8.15039C17.3438 7.7793 17.9688 7.49609 18.6328 7.30078C19.3164 7.08594 19.9414 6.97852 20.5078 6.97852C21.0352 6.97852 21.5625 7.04688 22.0898 7.18359C22.6172 7.30078 23.1152 7.49609 23.584 7.76953C24.0527 8.02344 24.4727 8.3457 24.8438 8.73633C25.2344 9.10742 25.5469 9.54688 25.7812 10.0547C26.1328 10.7773 26.416 11.5488 26.6309 12.3691C26.8457 13.1699 27.0117 14 27.1289 14.8594C27.2461 15.6992 27.3242 16.5488 27.3633 17.4082C27.4023 18.248 27.4219 19.0684 27.4219 19.8691ZM22.7344 18.9316L22.6465 16.9395C22.6074 16.9395 22.5684 16.9395 22.5293 16.9395C22.4902 16.9199 22.4512 16.9102 22.4121 16.9102C22.1582 16.9102 21.8359 16.9785 21.4453 17.1152C21.0742 17.2324 20.7129 17.4082 20.3613 17.6426C20.0098 17.8574 19.707 18.1016 19.4531 18.375C19.2188 18.6484 19.1016 18.9316 19.1016 19.2246C19.1016 19.498 19.1992 19.6836 19.3945 19.7812C19.5898 19.8789 19.8145 19.9277 20.0684 19.9277C20.498 19.9277 20.957 19.8203 21.4453 19.6055C21.9336 19.3711 22.3633 19.1465 22.7344 18.9316ZM39.3457 13.043C39.0723 13.0625 38.8379 13.043 38.6426 12.9844C38.4473 12.9062 38.252 12.8281 38.0566 12.75C37.8809 12.6719 37.7051 12.6035 37.5293 12.5449C37.3535 12.4668 37.1582 12.4375 36.9434 12.457C36.5527 12.4766 36.2012 12.584 35.8887 12.7793C35.5957 12.9746 35.3223 13.2188 35.0684 13.5117C34.834 13.8047 34.6289 14.1367 34.4531 14.5078C34.2773 14.8594 34.1406 15.2109 34.043 15.5625C33.9844 15.7969 33.9355 16.1582 33.8965 16.6465C33.877 17.1152 33.8672 17.623 33.8672 18.1699C33.8477 18.7363 33.8379 19.2734 33.8379 19.7812C33.8379 20.2891 33.8184 20.6895 33.7793 20.9824C33.7598 21.2949 33.7109 21.666 33.6328 22.0957C33.5547 22.5059 33.4277 22.8965 33.252 23.2676C33.0957 23.6387 32.8809 23.9512 32.6074 24.2051C32.334 24.459 31.9824 24.5859 31.5527 24.5859C31.2207 24.5859 30.9277 24.4883 30.6738 24.293C30.4395 24.0977 30.2344 23.8438 30.0586 23.5312C29.9023 23.1992 29.7656 22.8184 29.6484 22.3887C29.5508 21.959 29.4727 21.5195 29.4141 21.0703C29.3555 20.6016 29.3066 20.1328 29.2676 19.6641C29.248 19.1953 29.2285 18.7559 29.209 18.3457C29.209 17.916 29.209 17.5254 29.209 17.1738C29.2285 16.8223 29.2383 16.5391 29.2383 16.3242C29.2188 15.6406 29.1797 14.957 29.1211 14.2734C29.082 13.5703 29.0625 12.877 29.0625 12.1934C29.0625 11.7637 29.082 11.2852 29.1211 10.7578C29.1602 10.2305 29.2676 9.74219 29.4434 9.29297C29.6191 8.82422 29.873 8.43359 30.2051 8.12109C30.5566 7.80859 31.0352 7.65234 31.6406 7.65234C31.9727 7.65234 32.2559 7.75977 32.4902 7.97461C32.7246 8.18945 32.9102 8.45313 33.0469 8.76562C33.2031 9.07812 33.3203 9.41016 33.3984 9.76172C33.4766 10.1133 33.5254 10.4355 33.5449 10.7285C34.0137 9.9668 34.541 9.35156 35.127 8.88281C35.7129 8.39453 36.4746 8.13086 37.4121 8.0918C37.8809 8.07227 38.3398 8.12109 38.7891 8.23828C39.2578 8.33594 39.6777 8.51172 40.0488 8.76562C40.4395 9 40.752 9.3125 40.9863 9.70312C41.2402 10.0938 41.377 10.5527 41.3965 11.0801C41.4355 11.7051 41.25 12.1836 40.8398 12.5156C40.4297 12.8477 39.9316 13.0234 39.3457 13.043ZM48.6621 25.0547C47.2754 25.0547 46.1914 24.8691 45.4102 24.498C44.6484 24.1465 44.0723 23.6387 43.6816 22.9746C43.3105 22.3105 43.0859 21.5098 43.0078 20.5723C42.9297 19.6348 42.8906 18.5898 42.8906 17.4375C42.8906 16.5195 42.9199 15.6016 42.9785 14.6836C43.0371 13.7461 43.125 12.75 43.2422 11.6953C42.9688 11.6953 42.7539 11.7051 42.5977 11.7246C42.4414 11.7246 42.3145 11.7246 42.2168 11.7246C41.5918 11.7246 41.0547 11.5879 40.6055 11.3145C40.1367 11.041 39.9023 10.6211 39.9023 10.0547C39.9023 9.70312 40.0391 9.39062 40.3125 9.11719C40.5664 8.84375 40.8984 8.60937 41.3086 8.41406C41.7188 8.21875 42.1582 8.0625 42.627 7.94531C43.1152 7.82812 43.5742 7.75 44.0039 7.71094C44.0039 7.16406 44.043 6.55859 44.1211 5.89453C44.1992 5.23047 44.3359 4.61523 44.5312 4.04883C44.7461 3.46289 45.0293 2.97461 45.3809 2.58398C45.7324 2.19336 46.1816 1.99805 46.7285 1.99805C47.041 1.99805 47.3145 2.0957 47.5488 2.29102C47.8027 2.4668 48.0078 2.70117 48.1641 2.99414C48.3203 3.26758 48.4375 3.58008 48.5156 3.93164C48.5938 4.2832 48.6328 4.625 48.6328 4.95703C48.6328 5.34766 48.6035 5.74805 48.5449 6.1582C48.4863 6.56836 48.3789 7.07617 48.2227 7.68164C48.5547 7.64258 48.7793 7.62305 48.8965 7.62305C49.0137 7.60352 49.1211 7.59375 49.2188 7.59375C49.5508 7.59375 49.8926 7.62305 50.2441 7.68164C50.6152 7.74023 50.9473 7.83789 51.2402 7.97461C51.5527 8.11133 51.8066 8.29688 52.002 8.53125C52.1973 8.74609 52.2949 9.00977 52.2949 9.32227C52.2949 9.67383 52.1484 9.98633 51.8555 10.2598C51.582 10.5332 51.2305 10.7676 50.8008 10.9629C50.3711 11.1582 49.9121 11.3145 49.4238 11.4316C48.9355 11.5293 48.4766 11.5977 48.0469 11.6367C47.9297 12.4375 47.8418 13.1797 47.7832 13.8633C47.7441 14.5273 47.6953 15.2012 47.6367 15.8848C47.5977 16.2168 47.5586 16.5586 47.5195 16.9102C47.5 17.2422 47.4902 17.584 47.4902 17.9355C47.4902 18.1895 47.5 18.4922 47.5195 18.8438C47.5391 19.1758 47.6074 19.498 47.7246 19.8105C47.8418 20.123 48.0273 20.3965 48.2812 20.6309C48.5352 20.8457 48.8867 20.9531 49.3359 20.9531C49.6094 20.9531 49.8926 20.9336 50.1855 20.8945C50.4785 20.8359 50.7715 20.8066 51.0645 20.8066C51.5723 20.8066 51.9336 20.9824 52.1484 21.334C52.3828 21.6855 52.5 22.1348 52.5 22.6816C52.5 23.0918 52.373 23.4531 52.1191 23.7656C51.8848 24.0586 51.582 24.293 51.2109 24.4688C50.8398 24.6641 50.4199 24.8105 49.9512 24.9082C49.502 25.0059 49.0723 25.0547 48.6621 25.0547ZM66.3867 16.4121C66.3867 16.7441 66.377 17.2422 66.3574 17.9062C66.3574 18.5508 66.3281 19.2344 66.2695 19.957C66.2305 20.6602 66.1719 21.334 66.0938 21.9785C66.0156 22.6035 65.918 23.0625 65.8008 23.3555C65.6445 23.7266 65.4395 24.0488 65.1855 24.3223C64.9316 24.5957 64.5898 24.7324 64.1602 24.7324C63.4961 24.7324 63.0176 24.4688 62.7246 23.9414C62.4316 23.4141 62.2363 22.7598 62.1387 21.9785C62.041 21.1973 62.002 20.3477 62.0215 19.4297C62.041 18.5117 62.0312 17.6621 61.9922 16.8809C61.9531 16.0996 61.8457 15.4453 61.6699 14.918C61.4941 14.3906 61.1719 14.127 60.7031 14.127C60.0586 14.127 59.5605 14.2344 59.209 14.4492C58.877 14.6445 58.6328 14.9082 58.4766 15.2402C58.3398 15.5723 58.252 15.9531 58.2129 16.3828C58.1934 16.8125 58.1641 17.2617 58.125 17.7305C58.0859 18.1797 58.0566 18.7852 58.0371 19.5469C58.0176 20.3086 57.9297 21.0605 57.7734 21.8027C57.6172 22.5449 57.3535 23.1895 56.9824 23.7363C56.6309 24.2637 56.1035 24.5273 55.4004 24.5273C54.9707 24.5273 54.6191 24.3613 54.3457 24.0293C54.0918 23.6973 53.8867 23.2676 53.7305 22.7402C53.5742 22.2129 53.457 21.627 53.3789 20.9824C53.3203 20.3379 53.2812 19.7129 53.2617 19.1074C53.2617 18.4824 53.2617 17.916 53.2617 17.4082C53.2812 16.9004 53.291 16.5195 53.291 16.2656C53.291 15.875 53.3008 15.2305 53.3203 14.332C53.3594 13.4336 53.4277 12.4375 53.5254 11.3438C53.623 10.2305 53.75 9.08789 53.9062 7.91602C54.0625 6.74414 54.2676 5.67969 54.5215 4.72266C54.7754 3.74609 55.0781 2.95508 55.4297 2.34961C55.8008 1.74414 56.2305 1.45117 56.7188 1.4707C57.0312 1.49023 57.2949 1.62695 57.5098 1.88086C57.7441 2.13477 57.9297 2.4668 58.0664 2.87695C58.2227 3.26758 58.3496 3.69727 58.4473 4.16602C58.5449 4.63477 58.6133 5.10352 58.6523 5.57227C58.7109 6.02148 58.7402 6.44141 58.7402 6.83203C58.7598 7.22266 58.7695 7.52539 58.7695 7.74023C58.7695 8.24805 58.7598 8.75586 58.7402 9.26367C58.7207 9.77148 58.6914 10.2793 58.6523 10.7871C59.1016 10.1816 59.6973 9.68359 60.4395 9.29297C61.2012 8.90234 61.9629 8.70703 62.7246 8.70703C63.7012 8.70703 64.4336 8.98047 64.9219 9.52734C65.4297 10.0547 65.791 10.7188 66.0059 11.5195C66.2207 12.3008 66.3379 13.1406 66.3574 14.0391C66.377 14.918 66.3867 15.709 66.3867 16.4121Z" fill="#222222"/>
<path d="M81.5918 16.9688C81.416 17.8477 81.1328 18.7656 80.7422 19.7227C80.3711 20.6602 79.8828 21.5195 79.2773 22.3008C78.6914 23.082 77.9883 23.7168 77.168 24.2051C76.3477 24.7129 75.4102 24.9668 74.3555 24.9668C73.5742 24.9668 72.8711 24.8105 72.2461 24.498C71.6211 24.1855 71.0547 23.7656 70.5469 23.2383C70.0391 22.7109 69.5996 22.1055 69.2285 21.4219C68.8574 20.7383 68.5449 20.0352 68.291 19.3125C68.0566 18.5703 67.8809 17.8379 67.7637 17.1152C67.6465 16.3926 67.5879 15.7188 67.5879 15.0938C67.5879 14.2148 67.666 13.2773 67.8223 12.2812C67.998 11.2656 68.252 10.2695 68.584 9.29297C68.916 8.29688 69.3359 7.34961 69.8438 6.45117C70.3516 5.5332 70.9473 4.73242 71.6309 4.04883C72.334 3.3457 73.1152 2.78906 73.9746 2.37891C74.8535 1.94922 75.8301 1.73438 76.9043 1.73438C77.5879 1.73438 78.2227 1.87109 78.8086 2.14453C79.3945 2.39844 79.9023 2.75 80.332 3.19922C80.7617 3.62891 81.0938 4.14648 81.3281 4.75195C81.582 5.35742 81.709 5.99219 81.709 6.65625V6.91992C81.709 7.27148 81.6895 7.71094 81.6504 8.23828C81.6309 8.74609 81.543 9.23438 81.3867 9.70312C81.2305 10.1719 80.9961 10.582 80.6836 10.9336C80.3711 11.2656 79.9316 11.4316 79.3652 11.4316C78.6816 11.4316 78.1641 11.2754 77.8125 10.9629C77.4609 10.6504 77.2852 10.1328 77.2852 9.41016C77.2852 9.13672 77.2949 8.86328 77.3145 8.58984C77.334 8.31641 77.3438 8.04297 77.3438 7.76953C77.3438 7.35938 77.2754 7.04688 77.1387 6.83203C77.002 6.59766 76.7188 6.48047 76.2891 6.48047C75.8008 6.48047 75.3613 6.63672 74.9707 6.94922C74.5801 7.26172 74.2383 7.67187 73.9453 8.17969C73.6523 8.6875 73.3984 9.26367 73.1836 9.9082C72.9688 10.5527 72.793 11.207 72.6562 11.8711C72.5195 12.5156 72.4219 13.1406 72.3633 13.7461C72.3047 14.3516 72.2754 14.8691 72.2754 15.2988C72.2754 15.6504 72.2949 16.0605 72.334 16.5293C72.373 16.9785 72.4512 17.418 72.5684 17.8477C72.7051 18.2578 72.9004 18.6094 73.1543 18.9023C73.4082 19.1953 73.7402 19.3418 74.1504 19.3418C74.8535 19.3418 75.4199 19.127 75.8496 18.6973C76.2793 18.248 76.5723 17.6816 76.7285 16.998C76.4551 16.959 76.1816 16.9004 75.9082 16.8223C75.6543 16.7246 75.4102 16.5977 75.1758 16.4414C74.9609 16.2656 74.7852 16.0605 74.6484 15.8262C74.5117 15.5723 74.4434 15.2793 74.4434 14.9473C74.4434 14.3418 74.6484 13.873 75.0586 13.541C75.4688 13.1895 75.9473 12.9258 76.4941 12.75C77.0605 12.5742 77.6367 12.4668 78.2227 12.4277C78.8086 12.3691 79.2773 12.3398 79.6289 12.3398C79.8828 12.3398 80.2539 12.3594 80.7422 12.3984C81.2305 12.4375 81.709 12.5254 82.1777 12.6621C82.666 12.7793 83.0859 12.9551 83.4375 13.1895C83.7891 13.4238 83.9648 13.7266 83.9648 14.0977C83.9648 14.8398 83.7598 15.4844 83.3496 16.0312C82.959 16.5586 82.373 16.8711 81.5918 16.9688ZM96.9141 15.6211C96.9141 16.6953 96.8066 17.7598 96.5918 18.8145C96.377 19.8691 96.0156 20.8164 95.5078 21.6562C95 22.4766 94.3164 23.1406 93.457 23.6484C92.6172 24.1562 91.5625 24.4102 90.293 24.4102C89.043 24.4102 87.998 24.166 87.1582 23.6777C86.3184 23.1699 85.6445 22.5059 85.1367 21.6855C84.6484 20.8652 84.2969 19.9375 84.082 18.9023C83.8867 17.8672 83.7891 16.8125 83.7891 15.7383C83.7891 14.5664 83.9258 13.4043 84.1992 12.252C84.2578 11.9395 84.3652 11.5098 84.5215 10.9629C84.6973 10.3965 84.9121 9.84961 85.166 9.32227C85.4395 8.77539 85.7422 8.30664 86.0742 7.91602C86.4258 7.52539 86.8066 7.33008 87.2168 7.33008C87.6074 7.33008 87.9199 7.4375 88.1543 7.65234C88.3887 7.86719 88.5742 8.14062 88.7109 8.47266C88.8477 8.78516 88.9355 9.12695 88.9746 9.49805C89.0137 9.84961 89.0332 10.1719 89.0332 10.4648C89.0332 10.9141 88.9941 11.3535 88.916 11.7832C88.8574 12.2129 88.7891 12.6426 88.7109 13.0723C88.6328 13.6582 88.5547 14.2441 88.4766 14.8301C88.418 15.416 88.3887 16.002 88.3887 16.5879C88.3887 16.8809 88.3984 17.2129 88.418 17.584C88.457 17.9355 88.5352 18.2773 88.6523 18.6094C88.7695 18.9414 88.9355 19.2246 89.1504 19.459C89.3652 19.6738 89.668 19.7812 90.0586 19.7812C90.5664 19.7812 90.9668 19.6445 91.2598 19.3711C91.5723 19.0977 91.7969 18.7559 91.9336 18.3457C92.0898 17.9355 92.1875 17.4961 92.2266 17.0273C92.2656 16.5586 92.2852 16.1289 92.2852 15.7383C92.2852 14.8789 92.2266 14.0391 92.1094 13.2188C91.9922 12.3789 91.8848 11.5293 91.7871 10.6699C91.7676 10.5723 91.7578 10.4355 91.7578 10.2598C91.7578 9.9668 91.8066 9.67383 91.9043 9.38086C92.002 9.08789 92.1387 8.82422 92.3145 8.58984C92.4902 8.35547 92.7051 8.16992 92.959 8.0332C93.2129 7.87695 93.4961 7.79883 93.8086 7.79883C94.2383 7.79883 94.6191 7.95508 94.9512 8.26758C95.2832 8.56055 95.5566 8.95117 95.7715 9.43945C96.0059 9.9082 96.1914 10.4453 96.3281 11.0508C96.4844 11.6367 96.6016 12.2227 96.6797 12.8086C96.7773 13.375 96.8359 13.9121 96.8555 14.4199C96.8945 14.9277 96.9141 15.3281 96.9141 15.6211ZM111.152 19.8691C111.152 20.2207 111.133 20.6797 111.094 21.2461C111.074 21.8125 110.996 22.3691 110.859 22.916C110.723 23.4434 110.508 23.9023 110.215 24.293C109.922 24.6836 109.512 24.8789 108.984 24.8789C108.262 24.8789 107.705 24.6445 107.314 24.1758C106.924 23.707 106.738 23.1211 106.758 22.418C106.133 22.9648 105.42 23.3945 104.619 23.707C103.838 24.0195 103.037 24.1758 102.217 24.1758C101.65 24.1758 101.113 24.0391 100.605 23.7656C100.098 23.4922 99.6484 23.1406 99.2578 22.7109C98.8672 22.2812 98.5547 21.8027 98.3203 21.2754C98.0859 20.7285 97.9688 20.1914 97.9688 19.6641C97.9688 18.7266 98.252 17.9062 98.8184 17.2031C99.4043 16.5 100.117 15.9043 100.957 15.416C101.797 14.9082 102.686 14.5078 103.623 14.2148C104.58 13.9219 105.43 13.7266 106.172 13.6289C106.172 13.5312 106.172 13.4434 106.172 13.3652C106.191 13.2871 106.201 13.1992 106.201 13.1016C106.201 12.4961 106.035 12.0078 105.703 11.6367C105.371 11.2656 104.902 11.0801 104.297 11.0801C103.809 11.0801 103.389 11.168 103.037 11.3438C102.686 11.5 102.354 11.6855 102.041 11.9004C101.729 12.0957 101.416 12.2812 101.104 12.457C100.791 12.6133 100.439 12.6914 100.049 12.6914C99.6191 12.6914 99.248 12.5547 98.9355 12.2812C98.6426 12.0078 98.4961 11.6562 98.4961 11.2266C98.4961 10.582 98.6816 9.99609 99.0527 9.46875C99.4434 8.94141 99.9219 8.50195 100.488 8.15039C101.074 7.7793 101.699 7.49609 102.363 7.30078C103.047 7.08594 103.672 6.97852 104.238 6.97852C104.766 6.97852 105.293 7.04688 105.82 7.18359C106.348 7.30078 106.846 7.49609 107.314 7.76953C107.783 8.02344 108.203 8.3457 108.574 8.73633C108.965 9.10742 109.277 9.54688 109.512 10.0547C109.863 10.7773 110.146 11.5488 110.361 12.3691C110.576 13.1699 110.742 14 110.859 14.8594C110.977 15.6992 111.055 16.5488 111.094 17.4082C111.133 18.248 111.152 19.0684 111.152 19.8691ZM106.465 18.9316L106.377 16.9395C106.338 16.9395 106.299 16.9395 106.26 16.9395C106.221 16.9199 106.182 16.9102 106.143 16.9102C105.889 16.9102 105.566 16.9785 105.176 17.1152C104.805 17.2324 104.443 17.4082 104.092 17.6426C103.74 17.8574 103.438 18.1016 103.184 18.375C102.949 18.6484 102.832 18.9316 102.832 19.2246C102.832 19.498 102.93 19.6836 103.125 19.7812C103.32 19.8789 103.545 19.9277 103.799 19.9277C104.229 19.9277 104.688 19.8203 105.176 19.6055C105.664 19.3711 106.094 19.1465 106.465 18.9316ZM123.076 13.043C122.803 13.0625 122.568 13.043 122.373 12.9844C122.178 12.9062 121.982 12.8281 121.787 12.75C121.611 12.6719 121.436 12.6035 121.26 12.5449C121.084 12.4668 120.889 12.4375 120.674 12.457C120.283 12.4766 119.932 12.584 119.619 12.7793C119.326 12.9746 119.053 13.2188 118.799 13.5117C118.564 13.8047 118.359 14.1367 118.184 14.5078C118.008 14.8594 117.871 15.2109 117.773 15.5625C117.715 15.7969 117.666 16.1582 117.627 16.6465C117.607 17.1152 117.598 17.623 117.598 18.1699C117.578 18.7363 117.568 19.2734 117.568 19.7812C117.568 20.2891 117.549 20.6895 117.51 20.9824C117.49 21.2949 117.441 21.666 117.363 22.0957C117.285 22.5059 117.158 22.8965 116.982 23.2676C116.826 23.6387 116.611 23.9512 116.338 24.2051C116.064 24.459 115.713 24.5859 115.283 24.5859C114.951 24.5859 114.658 24.4883 114.404 24.293C114.17 24.0977 113.965 23.8438 113.789 23.5312C113.633 23.1992 113.496 22.8184 113.379 22.3887C113.281 21.959 113.203 21.5195 113.145 21.0703C113.086 20.6016 113.037 20.1328 112.998 19.6641C112.979 19.1953 112.959 18.7559 112.939 18.3457C112.939 17.916 112.939 17.5254 112.939 17.1738C112.959 16.8223 112.969 16.5391 112.969 16.3242C112.949 15.6406 112.91 14.957 112.852 14.2734C112.812 13.5703 112.793 12.877 112.793 12.1934C112.793 11.7637 112.812 11.2852 112.852 10.7578C112.891 10.2305 112.998 9.74219 113.174 9.29297C113.35 8.82422 113.604 8.43359 113.936 8.12109C114.287 7.80859 114.766 7.65234 115.371 7.65234C115.703 7.65234 115.986 7.75977 116.221 7.97461C116.455 8.18945 116.641 8.45313 116.777 8.76562C116.934 9.07812 117.051 9.41016 117.129 9.76172C117.207 10.1133 117.256 10.4355 117.275 10.7285C117.744 9.9668 118.271 9.35156 118.857 8.88281C119.443 8.39453 120.205 8.13086 121.143 8.0918C121.611 8.07227 122.07 8.12109 122.52 8.23828C122.988 8.33594 123.408 8.51172 123.779 8.76562C124.17 9 124.482 9.3125 124.717 9.70312C124.971 10.0938 125.107 10.5527 125.127 11.0801C125.166 11.7051 124.98 12.1836 124.57 12.5156C124.16 12.8477 123.662 13.0234 123.076 13.043ZM138.193 4.72266C138.193 6.14844 138.135 7.56445 138.018 8.9707C137.92 10.377 137.871 11.793 137.871 13.2188C137.871 14.3711 137.9 15.5137 137.959 16.6465C138.037 17.7793 138.076 18.9219 138.076 20.0742C138.076 20.3867 138.066 20.7676 138.047 21.2168C138.027 21.6465 137.959 22.0664 137.842 22.4766C137.744 22.8867 137.568 23.2383 137.314 23.5312C137.08 23.8242 136.738 23.9707 136.289 23.9707C135.703 23.9707 135.215 23.7559 134.824 23.3262C134.453 22.877 134.219 22.3789 134.121 21.832C133.75 22.5352 133.213 23.1309 132.51 23.6191C131.807 24.1074 131.045 24.3516 130.225 24.3516C129.346 24.3516 128.584 24.0488 127.939 23.4434C127.314 22.8379 126.787 22.1055 126.357 21.2461C125.947 20.3867 125.635 19.4883 125.42 18.5508C125.225 17.6133 125.127 16.8027 125.127 16.1191C125.127 15.6309 125.156 15.0742 125.215 14.4492C125.273 13.8242 125.371 13.1895 125.508 12.5449C125.664 11.9004 125.859 11.2754 126.094 10.6699C126.328 10.0449 126.621 9.48828 126.973 9C127.344 8.51172 127.773 8.12109 128.262 7.82812C128.77 7.53516 129.346 7.38867 129.99 7.38867C130.693 7.38867 131.367 7.59375 132.012 8.00391C132.656 8.41406 133.145 8.92188 133.477 9.52734L133.74 4.86914C133.76 4.49805 133.789 4.06836 133.828 3.58008C133.867 3.07227 133.945 2.59375 134.062 2.14453C134.199 1.69531 134.404 1.31445 134.678 1.00195C134.951 0.689453 135.352 0.533203 135.879 0.533203C136.445 0.533203 136.885 0.669922 137.197 0.943359C137.51 1.2168 137.734 1.56836 137.871 1.99805C138.027 2.4082 138.115 2.85742 138.135 3.3457C138.174 3.83398 138.193 4.29297 138.193 4.72266ZM133.418 17.7305C133.418 17.2812 133.408 16.8418 133.389 16.4121C133.369 15.9824 133.369 15.543 133.389 15.0938C133.271 14.8398 133.135 14.5664 132.979 14.2734C132.822 13.9609 132.627 13.6777 132.393 13.4238C132.178 13.1504 131.934 12.9258 131.66 12.75C131.387 12.5742 131.094 12.4863 130.781 12.4863C130.43 12.4863 130.146 12.5938 129.932 12.8086C129.717 13.0234 129.561 13.2871 129.463 13.5996C129.365 13.8926 129.297 14.2148 129.258 14.5664C129.238 14.918 129.229 15.2207 129.229 15.4746C129.229 15.709 129.248 16.0605 129.287 16.5293C129.326 16.9785 129.395 17.4375 129.492 17.9062C129.609 18.375 129.766 18.7852 129.961 19.1367C130.156 19.4883 130.42 19.6641 130.752 19.6641C131.006 19.6641 131.26 19.6152 131.514 19.5176C131.768 19.4004 132.002 19.2637 132.217 19.1074C132.451 18.9316 132.666 18.7461 132.861 18.5508C133.076 18.3359 133.262 18.1406 133.418 17.9648V17.7305ZM144.961 3.55078C144.961 3.82422 144.883 4.06836 144.727 4.2832C144.59 4.49805 144.404 4.69336 144.17 4.86914C143.936 5.02539 143.682 5.15234 143.408 5.25C143.135 5.32812 142.881 5.36719 142.646 5.36719C142.256 5.36719 141.914 5.26953 141.621 5.07422C141.328 4.87891 141.182 4.57617 141.182 4.16602C141.182 3.87305 141.25 3.61914 141.387 3.4043C141.543 3.16992 141.729 2.98437 141.943 2.84766C142.158 2.69141 142.402 2.57422 142.676 2.49609C142.949 2.41797 143.213 2.37891 143.467 2.37891C143.838 2.37891 144.18 2.4668 144.492 2.64258C144.805 2.81836 144.961 3.12109 144.961 3.55078ZM145.195 13.5117C145.195 13.7852 145.195 14.0781 145.195 14.3906C145.195 14.6836 145.186 14.9668 145.166 15.2402C145.146 15.5723 145.137 16.0215 145.137 16.5879C145.137 17.1348 145.117 17.7305 145.078 18.375C145.039 19.0195 144.971 19.6738 144.873 20.3379C144.795 21.002 144.658 21.6074 144.463 22.1543C144.268 22.7012 144.004 23.1504 143.672 23.502C143.359 23.834 142.959 24.0098 142.471 24.0293C142.1 24.0488 141.787 23.9023 141.533 23.5898C141.279 23.2773 141.064 22.877 140.889 22.3887C140.732 21.8809 140.615 21.3242 140.537 20.7188C140.459 20.0938 140.4 19.498 140.361 18.9316C140.322 18.3457 140.303 17.8086 140.303 17.3203C140.303 16.832 140.303 16.4707 140.303 16.2363C140.303 15.9238 140.303 15.4844 140.303 14.918C140.303 14.332 140.322 13.707 140.361 13.043C140.4 12.3789 140.469 11.7051 140.566 11.0215C140.684 10.3379 140.84 9.71289 141.035 9.14648C141.25 8.58008 141.523 8.12109 141.855 7.76953C142.188 7.41797 142.607 7.24219 143.115 7.24219C143.643 7.24219 144.043 7.50586 144.316 8.0332C144.59 8.56055 144.795 9.17578 144.932 9.87891C145.068 10.582 145.146 11.2852 145.166 11.9883C145.186 12.6719 145.195 13.1797 145.195 13.5117ZM159.727 19.8691C159.727 20.2207 159.707 20.6797 159.668 21.2461C159.648 21.8125 159.57 22.3691 159.434 22.916C159.297 23.4434 159.082 23.9023 158.789 24.293C158.496 24.6836 158.086 24.8789 157.559 24.8789C156.836 24.8789 156.279 24.6445 155.889 24.1758C155.498 23.707 155.312 23.1211 155.332 22.418C154.707 22.9648 153.994 23.3945 153.193 23.707C152.412 24.0195 151.611 24.1758 150.791 24.1758C150.225 24.1758 149.688 24.0391 149.18 23.7656C148.672 23.4922 148.223 23.1406 147.832 22.7109C147.441 22.2812 147.129 21.8027 146.895 21.2754C146.66 20.7285 146.543 20.1914 146.543 19.6641C146.543 18.7266 146.826 17.9062 147.393 17.2031C147.979 16.5 148.691 15.9043 149.531 15.416C150.371 14.9082 151.26 14.5078 152.197 14.2148C153.154 13.9219 154.004 13.7266 154.746 13.6289C154.746 13.5312 154.746 13.4434 154.746 13.3652C154.766 13.2871 154.775 13.1992 154.775 13.1016C154.775 12.4961 154.609 12.0078 154.277 11.6367C153.945 11.2656 153.477 11.0801 152.871 11.0801C152.383 11.0801 151.963 11.168 151.611 11.3438C151.26 11.5 150.928 11.6855 150.615 11.9004C150.303 12.0957 149.99 12.2812 149.678 12.457C149.365 12.6133 149.014 12.6914 148.623 12.6914C148.193 12.6914 147.822 12.5547 147.51 12.2812C147.217 12.0078 147.07 11.6562 147.07 11.2266C147.07 10.582 147.256 9.99609 147.627 9.46875C148.018 8.94141 148.496 8.50195 149.062 8.15039C149.648 7.7793 150.273 7.49609 150.938 7.30078C151.621 7.08594 152.246 6.97852 152.812 6.97852C153.34 6.97852 153.867 7.04688 154.395 7.18359C154.922 7.30078 155.42 7.49609 155.889 7.76953C156.357 8.02344 156.777 8.3457 157.148 8.73633C157.539 9.10742 157.852 9.54688 158.086 10.0547C158.438 10.7773 158.721 11.5488 158.936 12.3691C159.15 13.1699 159.316 14 159.434 14.8594C159.551 15.6992 159.629 16.5488 159.668 17.4082C159.707 18.248 159.727 19.0684 159.727 19.8691ZM155.039 18.9316L154.951 16.9395C154.912 16.9395 154.873 16.9395 154.834 16.9395C154.795 16.9199 154.756 16.9102 154.717 16.9102C154.463 16.9102 154.141 16.9785 153.75 17.1152C153.379 17.2324 153.018 17.4082 152.666 17.6426C152.314 17.8574 152.012 18.1016 151.758 18.375C151.523 18.6484 151.406 18.9316 151.406 19.2246C151.406 19.498 151.504 19.6836 151.699 19.7812C151.895 19.8789 152.119 19.9277 152.373 19.9277C152.803 19.9277 153.262 19.8203 153.75 19.6055C154.238 19.3711 154.668 19.1465 155.039 18.9316ZM169.805 24.8203C169.473 24.8203 169.209 24.6641 169.014 24.3516C168.818 24.0586 168.672 23.7168 168.574 23.3262C168.477 22.9355 168.408 22.5449 168.369 22.1543C168.35 21.7441 168.34 21.4316 168.34 21.2168C168.34 20.6309 168.369 20.0449 168.428 19.459C168.506 18.873 168.584 18.2871 168.662 17.7012C168.76 17.1152 168.838 16.5293 168.896 15.9434C168.975 15.3574 169.014 14.7715 169.014 14.1855C169.014 13.9512 169.004 13.6973 168.984 13.4238C168.965 13.1504 168.916 12.8965 168.838 12.6621C168.779 12.4082 168.672 12.2031 168.516 12.0469C168.359 11.8906 168.154 11.8125 167.9 11.8125C167.725 11.8125 167.529 11.959 167.314 12.252C167.1 12.5254 166.895 12.8477 166.699 13.2188C166.523 13.5703 166.367 13.9316 166.23 14.3027C166.113 14.6543 166.055 14.918 166.055 15.0938C166.055 15.5234 166.055 15.9629 166.055 16.4121C166.074 16.8418 166.084 17.2812 166.084 17.7305V19.4297C166.064 19.7812 166.035 20.1426 165.996 20.5137C165.957 20.8848 165.898 21.2461 165.82 21.5977C165.762 21.9492 165.674 22.291 165.557 22.623C165.439 22.9355 165.283 23.2188 165.088 23.4727C164.912 23.707 164.697 23.9023 164.443 24.0586C164.189 24.2148 163.887 24.293 163.535 24.293C163.145 24.293 162.822 24.166 162.568 23.9121C162.314 23.6582 162.109 23.3359 161.953 22.9453C161.797 22.5352 161.68 22.0859 161.602 21.5977C161.543 21.0898 161.494 20.6016 161.455 20.1328C161.436 19.6445 161.426 19.2051 161.426 18.8145C161.445 18.4043 161.455 18.082 161.455 17.8477V16.4707C161.455 15.7285 161.436 14.9961 161.396 14.2734C161.377 13.5508 161.367 12.8281 161.367 12.1055C161.367 11.7148 161.367 11.2168 161.367 10.6113C161.387 10.0059 161.465 9.41992 161.602 8.85352C161.738 8.26758 161.963 7.76953 162.275 7.35938C162.588 6.94922 163.047 6.74414 163.652 6.74414C163.926 6.74414 164.17 6.83203 164.385 7.00781C164.6 7.18359 164.785 7.39844 164.941 7.65234C165.117 7.90625 165.254 8.17969 165.352 8.47266C165.469 8.76562 165.557 9.01953 165.615 9.23438C165.811 8.96094 166.035 8.69727 166.289 8.44336C166.562 8.18945 166.865 7.96484 167.197 7.76953C167.529 7.57422 167.9 7.41797 168.311 7.30078C168.721 7.18359 169.189 7.125 169.717 7.125C170.713 7.125 171.484 7.36914 172.031 7.85742C172.598 8.32617 173.008 8.92188 173.262 9.64453C173.535 10.3477 173.701 11.1094 173.76 11.9297C173.818 12.75 173.848 13.4922 173.848 14.1562C173.848 14.4883 173.818 14.9863 173.76 15.6504C173.701 16.2949 173.604 17.0176 173.467 17.8184C173.35 18.5996 173.184 19.4102 172.969 20.25C172.754 21.0703 172.5 21.8223 172.207 22.5059C171.914 23.1895 171.562 23.7461 171.152 24.1758C170.762 24.6055 170.312 24.8203 169.805 24.8203ZM184.072 7.88672C184.072 8.45313 183.877 8.87305 183.486 9.14648C183.115 9.41992 182.695 9.68359 182.227 9.9375C181.758 10.1719 181.328 10.4551 180.938 10.7871C180.566 11.1191 180.381 11.6172 180.381 12.2812C180.381 12.6328 180.459 12.9355 180.615 13.1895C180.791 13.4434 180.996 13.6777 181.23 13.8926C181.484 14.0879 181.758 14.293 182.051 14.5078C182.344 14.7227 182.607 14.9668 182.842 15.2402C183.096 15.5137 183.301 15.8457 183.457 16.2363C183.633 16.627 183.721 17.1055 183.721 17.6719C183.721 18.4922 183.506 19.3027 183.076 20.1035C182.666 20.8848 182.129 21.5879 181.465 22.2129C180.82 22.8184 180.088 23.3066 179.268 23.6777C178.447 24.0488 177.637 24.2344 176.836 24.2344C176.504 24.2344 176.172 24.2051 175.84 24.1465C175.508 24.1074 175.205 24.0195 174.932 23.8828C174.678 23.7461 174.463 23.5605 174.287 23.3262C174.111 23.0723 174.023 22.75 174.023 22.3594C174.023 21.8125 174.131 21.3926 174.346 21.0996C174.561 20.7871 174.834 20.543 175.166 20.3672C175.498 20.1914 175.85 20.0547 176.221 19.957C176.611 19.8594 176.973 19.7422 177.305 19.6055C177.637 19.4492 177.91 19.2539 178.125 19.0195C178.34 18.7852 178.447 18.4531 178.447 18.0234C178.447 17.6133 178.281 17.1934 177.949 16.7637C177.637 16.3145 177.285 15.8457 176.895 15.3574C176.504 14.8496 176.143 14.3125 175.811 13.7461C175.498 13.1797 175.342 12.5547 175.342 11.8711C175.342 11.0312 175.508 10.2598 175.84 9.55664C176.191 8.83398 176.65 8.20898 177.217 7.68164C177.803 7.1543 178.467 6.74414 179.209 6.45117C179.951 6.13867 180.732 5.98242 181.553 5.98242C181.865 5.98242 182.168 6.01172 182.461 6.07031C182.773 6.12891 183.047 6.23633 183.281 6.39258C183.516 6.5293 183.701 6.72461 183.838 6.97852C183.994 7.21289 184.072 7.51563 184.072 7.88672Z" fill="#0EC277"/>
</svg>
