<svg width="37" height="58" viewBox="0 0 37 58" fill="none" xmlns="http://www.w3.org/2000/svg">
<path d="M27.0012 35.7711C26.5277 36.8636 25.5727 38.2024 24.4254 39.34C23.3858 40.3708 22.2437 41.1813 21.2232 41.5183C20.4207 40.1031 20.5842 38.2131 21.2002 36.5101C21.4948 35.6957 21.8649 34.9332 22.2513 34.1375C22.2965 34.0444 22.342 33.9507 22.3876 33.8565C22.8183 32.9662 23.2557 32.0317 23.5778 30.9874C23.9008 29.9403 24.0629 28.858 24.2171 27.8197L24.2214 27.7904C24.3756 26.7522 24.5231 25.7585 24.807 24.81C25.7101 22.072 27.4128 19.6672 29.6955 17.9059C31.8146 16.2713 34.0775 14.8331 36.456 13.6086C36.487 15.8955 36.1279 18.173 35.3922 20.3425C34.7715 21.8154 33.8052 23.0956 32.7597 24.4115C32.6546 24.5438 32.5485 24.6767 32.442 24.8101C31.4984 25.9918 30.5166 27.2214 29.7697 28.613C29.1434 29.7725 28.6974 31.0042 28.2865 32.2156C28.2146 32.4275 28.1439 32.6385 28.0736 32.8484C27.7378 33.8501 27.41 34.8281 27.0012 35.7711Z" fill="#0EC277" stroke="#222222"/>
<mask id="path-2-inside-1_75_21" fill="white">
<path d="M21 42C23 38.32 19.77 35.66 18.66 34.34C17.4264 33.1308 16.3298 31.7894 15.39 30.34C14.16 27.96 14.51 25.01 13.39 22.58C12.7884 21.4612 11.963 20.4781 10.9652 19.6919C9.96744 18.9057 8.81853 18.3332 7.59 18.01C5.12815 17.3797 2.5902 17.0969 0.0499878 17.17C1.04999 20.17 4.85999 21.17 6.76999 23.74C8.39999 25.91 8.44999 28.91 9.76999 31.28C12.33 35.86 19 37.16 21.02 42.01"/>
</mask>
<path d="M21 42C23 38.32 19.77 35.66 18.66 34.34C17.4264 33.1308 16.3298 31.7894 15.39 30.34C14.16 27.96 14.51 25.01 13.39 22.58C12.7884 21.4612 11.963 20.4781 10.9652 19.6919C9.96744 18.9057 8.81853 18.3332 7.59 18.01C5.12815 17.3797 2.5902 17.0969 0.0499878 17.17C1.04999 20.17 4.85999 21.17 6.76999 23.74C8.39999 25.91 8.44999 28.91 9.76999 31.28C12.33 35.86 19 37.16 21.02 42.01" fill="#0EC277"/>
<path d="M18.66 34.34L19.4254 33.6964L19.3944 33.6595L19.36 33.6258L18.66 34.34ZM15.39 30.34L14.5016 30.7991L14.5242 30.8428L14.5509 30.884L15.39 30.34ZM13.39 22.58L14.2982 22.1614L14.2853 22.1335L14.2708 22.1064L13.39 22.58ZM7.59 18.01L7.8444 17.0429L7.83804 17.0413L7.59 18.01ZM0.0499878 17.17L0.0212304 16.1704L-1.3244 16.2091L-0.898696 17.4862L0.0499878 17.17ZM6.76999 23.74L5.96736 24.3365L5.97043 24.3406L6.76999 23.74ZM9.76999 31.28L8.89635 31.7666L8.89709 31.7679L9.76999 31.28ZM21.8786 42.4775C23.075 40.2762 22.6947 38.3264 21.8763 36.81C21.1159 35.4012 19.8642 34.2182 19.4254 33.6964L17.8946 34.9836C18.5658 35.7818 19.4841 36.5888 20.1162 37.76C20.6903 38.8236 20.925 40.0439 20.1214 41.5225L21.8786 42.4775ZM19.36 33.6258C18.1788 32.4681 17.1289 31.1838 16.2291 29.796L14.5509 30.884C15.5307 32.3951 16.6739 33.7936 17.96 35.0542L19.36 33.6258ZM16.2784 29.8809C15.7495 28.8575 15.5463 27.6845 15.3371 26.3265C15.1365 25.0246 14.9285 23.5289 14.2982 22.1614L12.4818 22.9986C12.9716 24.0611 13.1485 25.2554 13.3604 26.631C13.5637 27.9505 13.8005 29.4425 14.5016 30.7991L16.2784 29.8809ZM14.2708 22.1064C13.6042 20.8667 12.6897 19.7775 11.5841 18.9064L10.3463 20.4773C11.2364 21.1786 11.9726 22.0556 12.5093 23.0536L14.2708 22.1064ZM11.5841 18.9064C10.4786 18.0353 9.20559 17.401 7.8444 17.0429L7.33559 18.9771C8.43146 19.2654 9.4563 19.776 10.3463 20.4773L11.5841 18.9064ZM7.83804 17.0413C5.28581 16.3878 2.65469 16.0947 0.0212304 16.1704L0.0787452 18.1696C2.5257 18.0992 4.97049 18.3716 7.34195 18.9788L7.83804 17.0413ZM-0.898696 17.4862C-0.287679 19.3193 1.16704 20.4807 2.48503 21.4282C3.88686 22.436 5.13162 23.2119 5.96737 24.3365L7.5726 23.1435C6.49836 21.698 4.88312 20.689 3.65245 19.8043C2.33793 18.8593 1.38765 18.0207 0.998671 16.8538L-0.898696 17.4862ZM5.97043 24.3406C6.66397 25.2639 7.04389 26.3937 7.42565 27.713C7.79155 28.9774 8.16709 30.4572 8.89635 31.7666L10.6436 30.7934C10.0529 29.7328 9.74343 28.5276 9.34683 27.157C8.96609 25.8413 8.50601 24.3861 7.56955 23.1394L5.97043 24.3406ZM8.89709 31.7679C10.3184 34.3107 12.8655 35.9141 15.0401 37.374C17.3139 38.9004 19.2193 40.2875 20.0969 42.3945L21.9431 41.6255C20.8007 38.8825 18.3611 37.1946 16.1549 35.7135C13.8495 34.1659 11.7816 32.8293 10.6429 30.7921L8.89709 31.7679Z" fill="#222222" mask="url(#path-2-inside-1_75_21)"/>
<path d="M23.3829 13.344L23.3867 13.3785L23.3952 13.4121C23.6915 14.5885 24.1805 15.7077 24.8423 16.7242C25.5095 18.1553 25.6077 19.7463 25.3905 21.4064C25.1713 23.0814 24.6362 24.7902 24.0771 26.4277C23.8856 26.9834 23.6385 27.6315 23.3702 28.3353C22.8765 29.63 22.311 31.1132 21.8877 32.5568C21.5565 33.6863 21.2984 34.831 21.2137 35.9051C21.1887 36.223 21.1785 36.5379 21.1868 36.8467L16.9942 31.7343C16.1354 30.4075 15.543 28.5444 15.3551 26.6384C15.1658 24.7184 15.3934 22.8245 16.1045 21.4389C16.3043 21.0512 16.5354 20.6726 16.779 20.2823C16.8152 20.2243 16.8517 20.1659 16.8885 20.1072C17.096 19.776 17.3102 19.4339 17.5067 19.0858C17.9716 18.2622 18.3691 17.3519 18.4195 16.2835C18.4693 15.2256 18.1352 14.222 17.8352 13.3208L17.8307 13.3071C17.5184 12.369 17.243 11.5358 17.2697 10.6857L17.2698 10.6842C17.296 9.76356 17.6753 8.91491 18.2639 8.10854C18.8549 7.29884 19.6349 6.56132 20.4216 5.86422C21.2087 5.16681 22.0665 4.39419 22.7532 3.52013C23.207 2.9425 23.5964 2.30796 23.8448 1.6054C24.4278 2.56117 24.8217 3.62415 25.0006 4.73633C25.2374 6.2089 25.0895 7.71772 24.5712 9.11624L24.57 9.11942C24.4534 9.44057 24.3162 9.75988 24.1723 10.0914C24.164 10.1106 24.1556 10.1299 24.1472 10.1491C24.0129 10.4584 23.8735 10.7795 23.752 11.1029C23.4938 11.79 23.2955 12.5395 23.3829 13.344Z" fill="#0EC277" stroke="#222222"/>
<mask id="path-5-inside-2_75_21" fill="white">
<path d="M35.68 14.68C35.5391 15.0693 35.3755 15.4499 35.19 15.82C34.6568 16.8238 34.02 17.7689 33.29 18.64C32.39 19.75 31.2 20.98 29.94 22.39C28.5297 23.8699 27.4073 25.5993 26.63 27.49C25.92 29.54 25.85 31.66 25.29 33.49C24.8336 35.1087 24.2621 36.6928 23.58 38.23C23.1283 39.2714 22.5932 40.2747 21.98 41.23C21.7604 41.5776 21.52 41.9115 21.26 42.23C21.3084 42.135 21.3653 42.0447 21.43 41.96L21.91 41.18C22.486 40.2134 23.0003 39.2114 23.45 38.18C24.1118 36.6412 24.6632 35.0572 25.1 33.44C25.65 31.64 25.71 29.53 26.44 27.44C27.2207 25.5215 28.3612 23.77 29.8 22.28C31.07 20.87 32.27 19.66 33.18 18.56C33.9156 17.7081 34.5622 16.7833 35.11 15.8C35.32 15.46 35.43 15.17 35.53 14.98C35.63 14.79 35.67 14.67 35.68 14.68Z"/>
</mask>
<path d="M35.68 14.68C35.5391 15.0693 35.3755 15.4499 35.19 15.82C34.6568 16.8238 34.02 17.7689 33.29 18.64C32.39 19.75 31.2 20.98 29.94 22.39C28.5297 23.8699 27.4073 25.5993 26.63 27.49C25.92 29.54 25.85 31.66 25.29 33.49C24.8336 35.1087 24.2621 36.6928 23.58 38.23C23.1283 39.2714 22.5932 40.2747 21.98 41.23C21.7604 41.5776 21.52 41.9115 21.26 42.23C21.3084 42.135 21.3653 42.0447 21.43 41.96L21.91 41.18C22.486 40.2134 23.0003 39.2114 23.45 38.18C24.1118 36.6412 24.6632 35.0572 25.1 33.44C25.65 31.64 25.71 29.53 26.44 27.44C27.2207 25.5215 28.3612 23.77 29.8 22.28C31.07 20.87 32.27 19.66 33.18 18.56C33.9156 17.7081 34.5622 16.7833 35.11 15.8C35.32 15.46 35.43 15.17 35.53 14.98C35.63 14.79 35.67 14.67 35.68 14.68Z" fill="#1C2622"/>
<path d="M35.68 14.68L36.6203 15.0203L36.8367 14.4225L36.3871 13.9729L35.68 14.68ZM35.19 15.82L36.0731 16.2891L36.0787 16.2787L36.084 16.2681L35.19 15.82ZM33.29 18.64L32.5236 17.9977L32.5184 18.0039L32.5133 18.0102L33.29 18.64ZM29.94 22.39L30.6639 23.0799L30.675 23.0683L30.6857 23.0563L29.94 22.39ZM26.63 27.49L25.7051 27.1098L25.6943 27.136L25.6851 27.1627L26.63 27.49ZM25.29 33.49L24.3338 33.1974L24.3305 33.208L24.3275 33.2186L25.29 33.49ZM23.58 38.23L22.6659 37.8244L22.6626 37.8321L23.58 38.23ZM21.98 41.23L21.1384 40.6898L21.1346 40.6959L21.98 41.23ZM21.26 42.23L20.369 41.7761L22.0347 42.8624L21.26 42.23ZM21.43 41.96L22.2244 42.5673L22.2551 42.5272L22.2816 42.4841L21.43 41.96ZM21.91 41.18L22.7617 41.7041L22.7654 41.698L22.7691 41.6919L21.91 41.18ZM23.45 38.18L24.3667 38.5796L24.3687 38.5751L23.45 38.18ZM25.1 33.44L24.1437 33.1478L24.1389 33.1634L24.1346 33.1792L25.1 33.44ZM26.44 27.44L25.5138 27.0631L25.5042 27.0864L25.4959 27.1103L26.44 27.44ZM29.8 22.28L30.5193 22.9746L30.5314 22.9622L30.543 22.9493L29.8 22.28ZM33.18 18.56L32.4231 17.9065L32.4162 17.9145L32.4095 17.9226L33.18 18.56ZM35.11 15.8L34.2592 15.2745L34.2474 15.2937L34.2364 15.3133L35.11 15.8ZM34.7397 14.3397C34.6121 14.6921 34.464 15.0368 34.296 15.3719L36.084 16.2681C36.287 15.863 36.4661 15.4464 36.6203 15.0203L34.7397 14.3397ZM34.3069 15.3509C33.8064 16.293 33.2088 17.1801 32.5236 17.9977L34.0564 19.2823C34.8313 18.3577 35.5072 17.3545 36.0731 16.2891L34.3069 15.3509ZM32.5133 18.0102C31.6317 19.0975 30.4951 20.268 29.1943 21.7237L30.6857 23.0563C31.9049 21.692 33.1483 20.4025 34.0668 19.2698L32.5133 18.0102ZM29.2161 21.7001C27.7202 23.2698 26.5296 25.1043 25.7051 27.1098L27.5549 27.8702C28.285 26.0943 29.3393 24.4699 30.6639 23.0799L29.2161 21.7001ZM25.6851 27.1627C25.301 28.2718 25.0949 29.3856 24.9185 30.4014C24.7375 31.4436 24.591 32.3567 24.3338 33.1974L26.2462 33.7826C26.549 32.7932 26.7175 31.7314 26.889 30.7436C27.0651 29.7294 27.249 28.7582 27.5749 27.8173L25.6851 27.1627ZM24.3275 33.2186C23.8841 34.7915 23.3288 36.3307 22.6659 37.8244L24.494 38.6356C25.1955 37.0548 25.7832 35.4259 26.2525 33.7614L24.3275 33.2186ZM22.6626 37.8321C22.2323 38.8241 21.7226 39.7798 21.1385 40.6898L22.8216 41.7702C23.4638 40.7696 24.0243 39.7187 24.4974 38.6279L22.6626 37.8321ZM21.1346 40.6959C20.9366 41.0093 20.7198 41.3105 20.4853 41.5977L22.0347 42.8624C22.3202 42.5126 22.5843 42.1458 22.8254 41.7641L21.1346 40.6959ZM22.1511 42.6839C22.172 42.6428 22.1966 42.6038 22.2244 42.5673L20.6355 41.3527C20.5339 41.4856 20.4448 41.6273 20.369 41.7761L22.1511 42.6839ZM22.2816 42.4841L22.7617 41.7041L21.0584 40.6559L20.5783 41.4359L22.2816 42.4841ZM22.7691 41.6919C23.3666 40.6891 23.9002 39.6497 24.3667 38.5796L22.5333 37.7803C22.1005 38.7732 21.6054 39.7377 21.0509 40.6681L22.7691 41.6919ZM24.3687 38.5751C25.0492 36.9926 25.6162 35.3637 26.0654 33.7008L24.1346 33.1792C23.7102 34.7506 23.1744 36.2897 22.5314 37.7849L24.3687 38.5751ZM26.0564 33.7322C26.3544 32.7569 26.5182 31.7023 26.6879 30.7189C26.8624 29.7084 27.0487 28.7299 27.3841 27.7697L25.4959 27.1103C25.1013 28.2401 24.8926 29.3616 24.7171 30.3786C24.5368 31.4227 24.3956 32.3231 24.1437 33.1478L26.0564 33.7322ZM27.3663 27.8169C28.0989 26.0165 29.1691 24.3729 30.5193 22.9746L29.0806 21.5854C27.5532 23.1671 26.3425 25.0264 25.5138 27.0631L27.3663 27.8169ZM30.543 22.9493C31.7617 21.5962 33.0274 20.3132 33.9505 19.1974L32.4095 17.9226C31.5126 19.0068 30.3782 20.1438 29.057 21.6107L30.543 22.9493ZM33.9369 19.2135C34.7169 18.3101 35.4027 17.3294 35.9836 16.2866L34.2364 15.3133C33.7218 16.2372 33.1142 17.1061 32.4231 17.9065L33.9369 19.2135ZM35.9608 16.3255C36.1794 15.9715 36.3984 15.4772 36.4149 15.4458L34.6451 14.5143C34.6081 14.5845 34.5739 14.6568 34.5457 14.7173C34.5144 14.7843 34.4896 14.8385 34.4588 14.9028C34.401 15.024 34.3383 15.1465 34.2592 15.2745L35.9608 16.3255ZM36.4149 15.4458C36.4798 15.3225 36.5251 15.2219 36.5499 15.1671C36.5677 15.1276 36.5623 15.1408 36.5521 15.1603C36.5478 15.1684 36.5386 15.1857 36.5252 15.2076C36.5143 15.2256 36.4865 15.2702 36.4431 15.3223C36.4193 15.3508 36.297 15.501 36.0759 15.597C35.9468 15.653 35.7514 15.7043 35.5187 15.6665C35.2788 15.6276 35.0954 15.5096 34.9729 15.3871L36.3871 13.9729C36.264 13.8498 36.0798 13.7314 35.8392 13.6924C35.6058 13.6545 35.4096 13.7059 35.2797 13.7623C35.0568 13.859 34.9325 14.0109 34.9065 14.0421C34.8301 14.1338 34.7856 14.2224 34.7807 14.2316C34.7571 14.2767 34.7335 14.3299 34.7276 14.3429C34.7049 14.3932 34.6802 14.4475 34.6451 14.5143L36.4149 15.4458Z" fill="#222222" mask="url(#path-5-inside-2_75_21)"/>
<mask id="path-7-inside-3_75_21" fill="white">
<path d="M21.26 42.23C21.089 41.9896 20.9511 41.7272 20.85 41.45C20.5813 40.6836 20.4758 39.8696 20.54 39.06C20.6444 37.8653 20.9136 36.6909 21.34 35.57C21.8751 34.2195 22.2607 32.8145 22.49 31.38C22.64 29.86 22.49 28.38 22.77 27.02C22.9726 25.8379 23.3572 24.6943 23.91 23.63C24.2817 22.9161 24.7311 22.2453 25.25 21.63C25.4361 21.4008 25.64 21.1868 25.86 20.99C25.86 20.99 25.66 21.23 25.31 21.68C24.829 22.3082 24.404 22.9774 24.04 23.68C23.5187 24.7416 23.1548 25.8735 22.96 27.04C22.71 28.36 22.85 29.84 22.69 31.4C22.4655 32.8474 22.0729 34.2636 21.52 35.62C21.0878 36.7235 20.8086 37.8809 20.69 39.06C20.6135 39.8515 20.6951 40.6503 20.93 41.41C21.11 42 21.28 42.22 21.26 42.23Z"/>
</mask>
<path d="M21.26 42.23C21.089 41.9896 20.9511 41.7272 20.85 41.45C20.5813 40.6836 20.4758 39.8696 20.54 39.06C20.6444 37.8653 20.9136 36.6909 21.34 35.57C21.8751 34.2195 22.2607 32.8145 22.49 31.38C22.64 29.86 22.49 28.38 22.77 27.02C22.9726 25.8379 23.3572 24.6943 23.91 23.63C24.2817 22.9161 24.7311 22.2453 25.25 21.63C25.4361 21.4008 25.64 21.1868 25.86 20.99C25.86 20.99 25.66 21.23 25.31 21.68C24.829 22.3082 24.404 22.9774 24.04 23.68C23.5187 24.7416 23.1548 25.8735 22.96 27.04C22.71 28.36 22.85 29.84 22.69 31.4C22.4655 32.8474 22.0729 34.2636 21.52 35.62C21.0878 36.7235 20.8086 37.8809 20.69 39.06C20.6135 39.8515 20.6951 40.6503 20.93 41.41C21.11 42 21.28 42.22 21.26 42.23Z" fill="#1C2622"/>
<path d="M21.26 42.23L20.4451 42.8096L20.9414 43.5073L21.7072 43.1244L21.26 42.23ZM20.85 41.45L19.9062 41.7809L19.9105 41.7926L20.85 41.45ZM20.54 39.06L19.5438 38.9729L19.5431 38.9809L20.54 39.06ZM21.34 35.57L20.4102 35.2016L20.4053 35.2145L21.34 35.57ZM22.49 31.38L23.4775 31.5378L23.4822 31.5081L23.4852 31.4782L22.49 31.38ZM22.77 27.02L23.7494 27.2216L23.7528 27.2053L23.7556 27.1889L22.77 27.02ZM23.91 23.63L23.023 23.1682L23.0226 23.1691L23.91 23.63ZM25.25 21.63L26.0145 22.2746L26.0205 22.2675L26.0263 22.2603L25.25 21.63ZM25.86 20.99L26.6282 21.6301L25.1932 20.2448L25.86 20.99ZM25.31 21.68L24.5206 21.066L24.516 21.072L25.31 21.68ZM24.04 23.68L23.1521 23.22L23.1472 23.2295L23.1424 23.2392L24.04 23.68ZM22.96 27.04L23.9425 27.2261L23.9445 27.2154L23.9463 27.2047L22.96 27.04ZM22.69 31.4L23.6782 31.5532L23.6821 31.5277L23.6848 31.502L22.69 31.4ZM21.52 35.62L20.5939 35.2425L20.5889 35.2553L21.52 35.62ZM20.69 39.06L19.695 38.9599L19.6946 38.9638L20.69 39.06ZM20.93 41.41L21.8865 41.1182L21.8854 41.1146L20.93 41.41ZM22.0749 41.6504C21.9558 41.483 21.8599 41.3004 21.7895 41.1075L19.9105 41.7926C20.0423 42.154 20.2221 42.4961 20.4451 42.8096L22.0749 41.6504ZM21.7937 41.1192C21.5711 40.4843 21.4836 39.8098 21.5369 39.1391L19.5431 38.9809C19.4679 39.9293 19.5916 40.883 19.9063 41.7808L21.7937 41.1192ZM21.5362 39.1471C21.6326 38.0443 21.8811 36.9602 22.2747 35.9255L20.4053 35.2145C19.9462 36.4216 19.6563 37.6864 19.5438 38.9729L21.5362 39.1471ZM22.2697 35.9384C22.8317 34.52 23.2367 33.0444 23.4775 31.5378L21.5025 31.2222C21.2848 32.5846 20.9185 33.919 20.4103 35.2016L22.2697 35.9384ZM23.4852 31.4782C23.565 30.6689 23.5654 29.8623 23.581 29.1623C23.5971 28.4373 23.6292 27.8058 23.7494 27.2216L21.7905 26.8183C21.6308 27.5941 21.5978 28.3826 21.5815 29.1177C21.5646 29.8777 21.565 30.5711 21.4948 31.2818L23.4852 31.4782ZM23.7556 27.1889C23.9408 26.1087 24.2922 25.0636 24.7974 24.0909L23.0226 23.1691C22.4221 24.3251 22.0044 25.5671 21.7844 26.851L23.7556 27.1889ZM24.797 24.0918C25.1347 23.4432 25.543 22.8337 26.0145 22.2746L24.4855 20.9854C23.9192 21.657 23.4287 22.389 23.023 23.1682L24.797 24.0918ZM26.0263 22.2603C26.179 22.0723 26.3464 21.8967 26.5268 21.7352L25.1932 20.2448C24.9337 20.477 24.6931 20.7294 24.4737 20.9997L26.0263 22.2603ZM25.86 20.99C25.0917 20.3498 25.0917 20.3499 25.0917 20.3499C25.0917 20.3499 25.0917 20.3499 25.0917 20.3499C25.0916 20.35 25.0916 20.35 25.0915 20.3501C25.0915 20.3502 25.0914 20.3503 25.0913 20.3504C25.0911 20.3506 25.0908 20.3509 25.0905 20.3513C25.0899 20.352 25.0892 20.3529 25.0882 20.3541C25.0862 20.3565 25.0835 20.3598 25.08 20.364C25.073 20.3725 25.063 20.3846 25.05 20.4004C25.0241 20.432 24.9864 20.4782 24.9378 20.5385C24.8406 20.6591 24.6994 20.8362 24.5206 21.0661L26.0993 22.2939C26.2706 22.0738 26.4044 21.9059 26.4947 21.794C26.5398 21.738 26.574 21.6961 26.5965 21.6686C26.6078 21.6549 26.6161 21.6448 26.6214 21.6384C26.6241 21.6351 26.626 21.6328 26.6271 21.6315C26.6277 21.6308 26.6281 21.6303 26.6283 21.6301C26.6284 21.63 26.6284 21.6299 26.6284 21.63C26.6284 21.63 26.6284 21.63 26.6283 21.63C26.6283 21.63 26.6283 21.63 26.6283 21.6301C26.6283 21.6301 26.6283 21.6301 26.6283 21.6301C26.6282 21.6301 26.6282 21.6301 25.86 20.99ZM24.516 21.072C23.9994 21.7467 23.543 22.4655 23.1521 23.22L24.9279 24.14C25.265 23.4894 25.6585 22.8697 26.104 22.288L24.516 21.072ZM23.1424 23.2392C22.5782 24.388 22.1845 25.6129 21.9737 26.8753L23.9463 27.2047C24.1251 26.1341 24.4591 25.0952 24.9376 24.1208L23.1424 23.2392ZM21.9775 26.8539C21.8354 27.6038 21.8077 28.3785 21.7915 29.1077C21.7748 29.8597 21.7701 30.5683 21.6952 31.298L23.6848 31.502C23.7699 30.6717 23.7752 29.8603 23.791 29.1523C23.8073 28.4215 23.8346 27.7962 23.9425 27.2261L21.9775 26.8539ZM21.7018 31.2467C21.4893 32.6172 21.1175 33.9582 20.594 35.2425L22.446 35.9975C23.0283 34.5691 23.4418 33.0776 23.6782 31.5532L21.7018 31.2467ZM20.5889 35.2553C20.1234 36.4437 19.8227 37.6901 19.695 38.9599L21.685 39.1601C21.7944 38.0716 22.0522 37.0033 22.4511 35.9847L20.5889 35.2553ZM19.6946 38.9638C19.6054 39.8872 19.7005 40.8191 19.9746 41.7054L21.8854 41.1146C21.6896 40.4815 21.6216 39.8158 21.6854 39.1562L19.6946 38.9638ZM19.9735 41.7018C20.0797 42.0499 20.1865 42.2997 20.2688 42.4708C20.3068 42.5499 20.344 42.6206 20.3514 42.635C20.3633 42.6584 20.3435 42.6222 20.3241 42.5712C20.3187 42.5568 20.2769 42.4517 20.265 42.308C20.2588 42.2338 20.2537 42.0769 20.3194 41.8927C20.3956 41.6788 20.5569 41.4635 20.8128 41.3356L21.7072 43.1244C22.2868 42.8347 22.2668 42.2474 22.2582 42.1432C22.2459 41.995 22.2023 41.8835 22.1938 41.861C22.1682 41.7937 22.137 41.7342 22.133 41.7263C22.1085 41.6782 22.0957 41.6552 22.0712 41.6042C22.0285 41.5153 21.9603 41.3601 21.8865 41.1182L19.9735 41.7018Z" fill="#222222" mask="url(#path-7-inside-3_75_21)"/>
<mask id="path-9-inside-4_75_21" fill="white">
<path d="M20.83 37.2C20.6567 37.1467 20.4917 37.0693 20.34 36.97C19.9071 36.7352 19.5013 36.4535 19.13 36.13C17.9081 35.0454 16.9475 33.6985 16.32 32.19C15.7025 30.6918 15.2563 29.1285 14.99 27.53C14.88 26.92 14.8 26.42 14.75 26.08C14.7154 25.9019 14.6953 25.7213 14.69 25.54C14.7545 25.7115 14.8014 25.8891 14.83 26.07C14.92 26.53 15.03 27 15.13 27.5C15.4447 29.0765 15.9067 30.6199 16.51 32.11C17.1265 33.5904 18.0501 34.9231 19.22 36.02C19.7285 36.4503 20.2665 36.8446 20.83 37.2Z"/>
</mask>
<path d="M20.83 37.2C20.6567 37.1467 20.4917 37.0693 20.34 36.97C19.9071 36.7352 19.5013 36.4535 19.13 36.13C17.9081 35.0454 16.9475 33.6985 16.32 32.19C15.7025 30.6918 15.2563 29.1285 14.99 27.53C14.88 26.92 14.8 26.42 14.75 26.08C14.7154 25.9019 14.6953 25.7213 14.69 25.54C14.7545 25.7115 14.8014 25.8891 14.83 26.07C14.92 26.53 15.03 27 15.13 27.5C15.4447 29.0765 15.9067 30.6199 16.51 32.11C17.1265 33.5904 18.0501 34.9231 19.22 36.02C19.7285 36.4503 20.2665 36.8446 20.83 37.2Z" fill="#1C2622"/>
<path d="M20.83 37.2L20.5362 38.1559L21.3634 36.3542L20.83 37.2ZM20.34 36.97L20.8876 36.1333L20.8531 36.1107L20.8168 36.091L20.34 36.97ZM19.13 36.13L18.4661 36.8779L18.4731 36.884L19.13 36.13ZM16.32 32.19L15.3955 32.5711L15.3967 32.5741L16.32 32.19ZM14.99 27.53L15.9765 27.3657L15.9741 27.3525L14.99 27.53ZM14.75 26.08L15.7394 25.9345L15.736 25.9117L15.7316 25.8891L14.75 26.08ZM14.69 25.54L15.6261 25.1881L13.6904 25.5692L14.69 25.54ZM14.83 26.07L13.8423 26.2263L13.8451 26.2442L13.8486 26.262L14.83 26.07ZM15.13 27.5L16.1107 27.3042L16.1106 27.3039L15.13 27.5ZM16.51 32.11L15.5831 32.4853L15.5868 32.4944L16.51 32.11ZM19.22 36.02L18.536 36.7495L18.5546 36.7669L18.574 36.7834L19.22 36.02ZM21.1238 36.2441C21.0403 36.2185 20.9608 36.1812 20.8876 36.1333L19.7923 37.8067C20.0226 37.9574 20.273 38.075 20.5362 38.1559L21.1238 36.2441ZM20.8168 36.091C20.4483 35.8911 20.1029 35.6514 19.7869 35.376L18.4731 36.884C18.8997 37.2556 19.3659 37.5793 19.8632 37.849L20.8168 36.091ZM19.7938 35.3821C18.6848 34.3977 17.8129 33.1751 17.2433 31.8059L15.3967 32.5741C16.0821 34.2218 17.1315 35.6932 18.4662 36.8779L19.7938 35.3821ZM17.2446 31.8089C16.6557 30.3804 16.2303 28.8898 15.9764 27.3657L14.0036 27.6943C14.2823 29.3672 14.7492 31.0031 15.3955 32.5711L17.2446 31.8089ZM15.9741 27.3525C15.8659 26.7526 15.7877 26.2632 15.7394 25.9345L13.7606 26.2255C13.8123 26.5767 13.894 27.0874 14.0059 27.7075L15.9741 27.3525ZM15.7316 25.8891C15.7073 25.7643 15.6933 25.6378 15.6896 25.5108L13.6904 25.5692C13.6973 25.8049 13.7234 26.0395 13.7684 26.2709L15.7316 25.8891ZM13.754 25.8919C13.7946 26 13.8242 26.1121 13.8423 26.2263L15.8177 25.9137C15.7785 25.6661 15.7143 25.423 15.6261 25.1881L13.754 25.8919ZM13.8486 26.262C13.8957 26.5029 13.9477 26.7445 13.9987 26.981C14.0504 27.2202 14.1012 27.4549 14.1494 27.6961L16.1106 27.3039C16.0588 27.0451 16.0046 26.7948 15.9537 26.559C15.9023 26.3205 15.8542 26.0971 15.8114 25.878L13.8486 26.262ZM14.1494 27.6958C14.4763 29.3336 14.9563 30.9372 15.5831 32.4853L17.4369 31.7347C16.8571 30.3026 16.4131 28.8193 16.1107 27.3042L14.1494 27.6958ZM15.5868 32.4944C16.2577 34.1055 17.2629 35.5558 18.536 36.7495L19.904 35.2905C18.8374 34.2904 17.9952 33.0754 17.4332 31.7256L15.5868 32.4944ZM18.574 36.7834C19.1181 37.2437 19.6937 37.6656 20.2965 38.0458L21.3634 36.3542C20.8394 36.0237 20.339 35.6569 19.866 35.2566L18.574 36.7834Z" fill="#222222" mask="url(#path-9-inside-4_75_21)"/>
<mask id="path-11-inside-5_75_21" fill="white">
<path d="M23.78 1C23.8262 1.48891 23.8262 1.98109 23.78 2.47C23.6489 3.81081 23.2904 5.1195 22.72 6.34C22.38 7.12 21.82 7.87999 21.35 8.73999C21.1083 9.18205 20.9586 9.66852 20.91 10.17C20.8852 10.7049 20.9703 11.2392 21.16 11.74C21.6435 12.8138 21.996 13.9419 22.21 15.1C22.2424 16.3806 21.9645 17.6501 21.4 18.8C20.89 19.99 20.3 21.11 19.9 22.25C19.5202 23.3512 19.2882 24.4978 19.21 25.66C19.0973 27.6338 19.2657 29.6136 19.71 31.54C20.07 33.19 20.46 34.54 20.71 35.41L21.01 36.46C21.0472 36.5815 21.0773 36.705 21.1 36.83C21.1 36.83 21.05 36.71 20.97 36.47L20.63 35.47C20.35 34.57 19.93 33.26 19.56 31.61C19.091 29.6703 18.9057 27.6729 19.01 25.68C19.084 24.501 19.3161 23.3372 19.7 22.22C20.1 21.06 20.7 19.94 21.2 18.76C21.7479 17.6406 22.0188 16.406 21.99 15.16C21.7978 14.0156 21.4618 12.9001 20.99 11.84C20.8024 11.3146 20.7208 10.7572 20.75 10.2C20.7949 9.67162 20.9554 9.15955 21.22 8.70001C21.71 7.82001 22.22 7.09 22.61 6.31C23.1889 5.1104 23.564 3.8228 23.72 2.5C23.78 2.03 23.79 1.67001 23.81 1.42001C23.7894 1.28097 23.7794 1.14056 23.78 1Z"/>
</mask>
<path d="M23.78 1C23.8262 1.48891 23.8262 1.98109 23.78 2.47C23.6489 3.81081 23.2904 5.1195 22.72 6.34C22.38 7.12 21.82 7.87999 21.35 8.73999C21.1083 9.18205 20.9586 9.66852 20.91 10.17C20.8852 10.7049 20.9703 11.2392 21.16 11.74C21.6435 12.8138 21.996 13.9419 22.21 15.1C22.2424 16.3806 21.9645 17.6501 21.4 18.8C20.89 19.99 20.3 21.11 19.9 22.25C19.5202 23.3512 19.2882 24.4978 19.21 25.66C19.0973 27.6338 19.2657 29.6136 19.71 31.54C20.07 33.19 20.46 34.54 20.71 35.41L21.01 36.46C21.0472 36.5815 21.0773 36.705 21.1 36.83C21.1 36.83 21.05 36.71 20.97 36.47L20.63 35.47C20.35 34.57 19.93 33.26 19.56 31.61C19.091 29.6703 18.9057 27.6729 19.01 25.68C19.084 24.501 19.3161 23.3372 19.7 22.22C20.1 21.06 20.7 19.94 21.2 18.76C21.7479 17.6406 22.0188 16.406 21.99 15.16C21.7978 14.0156 21.4618 12.9001 20.99 11.84C20.8024 11.3146 20.7208 10.7572 20.75 10.2C20.7949 9.67162 20.9554 9.15955 21.22 8.70001C21.71 7.82001 22.22 7.09 22.61 6.31C23.1889 5.1104 23.564 3.8228 23.72 2.5C23.78 2.03 23.79 1.67001 23.81 1.42001C23.7894 1.28097 23.7794 1.14056 23.78 1Z" fill="#1C2622"/>
<path d="M23.78 1L24.7756 0.90601L22.78 0.995775L23.78 1ZM23.78 2.47L24.7753 2.56736L24.7756 2.56399L23.78 2.47ZM22.72 6.34L21.8141 5.91661L21.8085 5.92844L21.8033 5.94041L22.72 6.34ZM21.35 8.73999L22.2274 9.21979L22.2275 9.21956L21.35 8.73999ZM20.91 10.17L19.9147 10.0736L19.9123 10.0986L19.9111 10.1237L20.91 10.17ZM21.16 11.74L20.2249 12.0942L20.2357 12.1227L20.2482 12.1506L21.16 11.74ZM22.21 15.1L23.2097 15.0747L23.2077 14.9959L23.1934 14.9183L22.21 15.1ZM21.4 18.8L20.5023 18.3593L20.491 18.3824L20.4809 18.4061L21.4 18.8ZM19.9 22.25L18.9564 21.9189L18.9547 21.924L19.9 22.25ZM19.21 25.66L18.2122 25.5929L18.2116 25.603L19.21 25.66ZM19.71 31.54L20.6871 31.3268L20.6844 31.3153L19.71 31.54ZM20.71 35.41L21.6715 35.1353L21.6711 35.1338L20.71 35.41ZM21.01 36.46L20.0485 36.7347L20.0511 36.7438L20.0539 36.7529L21.01 36.46ZM21.1 36.83H22.1V36.7397L22.0839 36.651L21.1 36.83ZM20.97 36.47L21.9187 36.1538L21.9168 36.1481L20.97 36.47ZM20.63 35.47L19.6752 35.7671L19.679 35.7795L19.6832 35.7919L20.63 35.47ZM19.56 31.61L20.5358 31.3912L20.534 31.383L20.532 31.3749L19.56 31.61ZM19.01 25.68L18.0119 25.6173L18.0114 25.6277L19.01 25.68ZM19.7 22.22L18.7547 21.894L18.7543 21.895L19.7 22.22ZM21.2 18.76L20.3018 18.3204L20.2899 18.3448L20.2793 18.3699L21.2 18.76ZM21.99 15.16L22.9897 15.1369L22.9881 15.0651L22.9762 14.9944L21.99 15.16ZM20.99 11.84L20.0482 12.1763L20.061 12.212L20.0764 12.2466L20.99 11.84ZM20.75 10.2L19.7536 10.1153L19.7522 10.1315L19.7514 10.1477L20.75 10.2ZM21.22 8.70001L22.0866 9.19906L22.0902 9.19281L22.0937 9.1865L21.22 8.70001ZM22.61 6.31L23.5045 6.75726L23.5106 6.74461L22.61 6.31ZM23.72 2.5L22.728 2.37336L22.7269 2.38289L23.72 2.5ZM23.81 1.42001L24.8068 1.49976L24.8159 1.3863L24.7993 1.2737L23.81 1.42001ZM22.7844 1.09399C22.8247 1.52038 22.8247 1.94962 22.7844 2.37601L24.7756 2.56399C24.8276 2.01256 24.8276 1.45744 24.7756 0.90601L22.7844 1.09399ZM22.7848 2.37265C22.6647 3.6005 22.3364 4.79893 21.8141 5.91661L23.626 6.76338C24.2444 5.44006 24.6331 4.02112 24.7753 2.56736L22.7848 2.37265ZM21.8033 5.94041C21.6629 6.26255 21.4694 6.59736 21.2304 6.98876C21.0014 7.36357 20.7228 7.80252 20.4725 8.26042L22.2275 9.21956C22.4473 8.81746 22.6836 8.44641 22.9372 8.03122C23.1806 7.63263 23.4371 7.19745 23.6367 6.73958L21.8033 5.94041ZM20.4726 8.26019C20.1661 8.82077 19.9763 9.43766 19.9147 10.0736L21.9054 10.2664C21.9409 9.89939 22.0505 9.54333 22.2274 9.21979L20.4726 8.26019ZM19.9111 10.1237C19.88 10.7951 19.9868 11.4657 20.2249 12.0942L22.0952 11.3857C21.9539 11.0127 21.8905 10.6147 21.9089 10.2163L19.9111 10.1237ZM20.2482 12.1506C20.6988 13.1512 21.0273 14.2025 21.2266 15.2817L23.1934 14.9183C22.9648 13.6814 22.5883 12.4764 22.0718 11.3294L20.2482 12.1506ZM21.2103 15.1253C21.2387 16.2447 20.9958 17.3542 20.5023 18.3593L22.2977 19.2407C22.9333 17.9459 23.2462 16.5166 23.2097 15.0747L21.2103 15.1253ZM20.4809 18.4061C20.0183 19.4853 19.3675 20.7473 18.9564 21.9189L20.8436 22.5811C21.2325 21.4727 21.7617 20.4946 22.3192 19.1939L20.4809 18.4061ZM18.9547 21.924C18.546 23.1087 18.2964 24.3425 18.2123 25.5929L20.2078 25.7271C20.28 24.6532 20.4944 23.5936 20.8454 22.576L18.9547 21.924ZM18.2116 25.603C18.0936 27.6714 18.27 29.746 18.7356 31.7648L20.6844 31.3153C20.2614 29.4811 20.1011 27.5962 20.2084 25.717L18.2116 25.603ZM18.733 31.7532C19.1006 33.4378 19.4986 34.8152 19.7489 35.6862L21.6711 35.1338C21.4214 34.2648 21.0395 32.9422 20.687 31.3268L18.733 31.7532ZM19.7485 35.6847L20.0485 36.7347L21.9715 36.1853L21.6715 35.1353L19.7485 35.6847ZM20.0539 36.7529C20.0796 36.8369 20.1004 36.9225 20.1162 37.009L22.0839 36.651C22.0541 36.4875 22.0148 36.326 21.9662 36.1671L20.0539 36.7529ZM21.1 36.83C22.0231 36.4453 22.0231 36.4454 22.0231 36.4454C22.0231 36.4454 22.0232 36.4455 22.0232 36.4455C22.0232 36.4456 22.0232 36.4457 22.0233 36.4458C22.0233 36.4459 22.0234 36.4461 22.0235 36.4462C22.0236 36.4465 22.0237 36.4468 22.0238 36.447C22.024 36.4475 22.0241 36.4478 22.0242 36.448C22.0244 36.4484 22.0244 36.4484 22.0242 36.4479C22.0238 36.4469 22.0226 36.4441 22.0207 36.4394C22.017 36.43 22.0104 36.4131 22.0013 36.3888C21.9831 36.3403 21.9547 36.2619 21.9187 36.1538L20.0213 36.7862C20.0653 36.9181 20.1019 37.0197 20.1287 37.0912C20.1421 37.1269 20.153 37.155 20.1612 37.1756C20.1652 37.1859 20.1686 37.1943 20.1713 37.2008C20.1726 37.2041 20.1737 37.2068 20.1747 37.2092C20.1752 37.2103 20.1756 37.2113 20.176 37.2123C20.1762 37.2127 20.1763 37.2132 20.1765 37.2136C20.1766 37.2138 20.1767 37.214 20.1768 37.2141C20.1768 37.2142 20.1768 37.2143 20.1769 37.2144C20.1769 37.2145 20.1769 37.2145 20.1769 37.2145C20.1769 37.2146 20.177 37.2147 21.1 36.83ZM21.9168 36.1481L21.5768 35.1481L19.6832 35.7919L20.0232 36.7919L21.9168 36.1481ZM21.5849 35.1729C21.3033 34.2679 20.8955 32.9955 20.5358 31.3912L18.5842 31.8288C18.9645 33.5244 19.3967 34.8721 19.6752 35.7671L21.5849 35.1729ZM20.532 31.3749C20.0857 29.5292 19.9094 27.6286 20.0087 25.7323L18.0114 25.6277C17.902 27.7171 18.0963 29.8114 18.588 31.845L20.532 31.3749ZM20.0081 25.7426C20.0765 24.653 20.2909 23.5775 20.6457 22.545L18.7543 21.895C18.3413 23.097 18.0916 24.3489 18.012 25.6173L20.0081 25.7426ZM20.6454 22.546C20.8288 22.0142 21.0619 21.4806 21.3215 20.9143C21.5751 20.3614 21.8632 19.758 22.1208 19.1502L20.2793 18.3699C20.0368 18.942 19.775 19.4887 19.5035 20.0807C19.2382 20.6595 18.9713 21.2658 18.7547 21.894L20.6454 22.546ZM22.0982 19.1996C22.7165 17.9363 23.0223 16.543 22.9897 15.1369L20.9903 15.1831C21.0154 16.2689 20.7793 17.3449 20.3018 18.3204L22.0982 19.1996ZM22.9762 14.9944C22.77 13.767 22.4096 12.5705 21.9036 11.4334L20.0764 12.2466C20.5139 13.2298 20.8256 14.2643 21.0038 15.3257L22.9762 14.9944ZM21.9318 11.5037C21.7886 11.1028 21.7264 10.6775 21.7486 10.2523L19.7514 10.1477C19.7153 10.8369 19.8162 11.5263 20.0482 12.1763L21.9318 11.5037ZM21.7464 10.2847C21.7789 9.90227 21.8951 9.53166 22.0866 9.19906L20.3534 8.20096C20.0157 8.78745 19.8109 9.44097 19.7536 10.1153L21.7464 10.2847ZM22.0937 9.1865C22.3267 8.76813 22.5632 8.38737 22.8066 7.98762C23.0449 7.59633 23.2891 7.18782 23.5044 6.75721L21.7156 5.86278C21.5409 6.21217 21.3351 6.55867 21.0984 6.94739C20.8669 7.32765 20.6034 7.7519 20.3463 8.21353L22.0937 9.1865ZM23.5106 6.74461C24.1377 5.44505 24.5441 4.05015 24.7131 2.61711L22.7269 2.38289C22.5839 3.59545 22.24 4.77575 21.7094 5.87539L23.5106 6.74461ZM24.712 2.62663C24.7756 2.12855 24.7918 1.68741 24.8068 1.49976L22.8132 1.34027C22.7882 1.65262 22.7845 1.93145 22.7281 2.37337L24.712 2.62663ZM24.7993 1.2737C24.7861 1.1845 24.7796 1.09441 24.78 1.00422L22.78 0.995775C22.7792 1.1867 22.7928 1.37743 22.8208 1.56633L24.7993 1.2737Z" fill="#222222" mask="url(#path-11-inside-5_75_21)"/>
<mask id="path-13-inside-6_75_21" fill="white">
<path d="M20.72 41C20.6228 40.5913 20.4958 40.1902 20.34 39.8C19.8568 38.7513 19.178 37.8044 18.34 37.01C17.34 36.01 15.88 35.01 14.42 33.7C12.7611 32.3455 11.6145 30.465 11.17 28.37C10.9176 27.3345 10.5556 26.3288 10.09 25.37C9.60809 24.4913 8.99807 23.6891 8.28 22.99C7.02567 21.8261 5.65515 20.794 4.19 19.91C2.96 19.12 1.98 18.45 1.34 17.91C0.988648 17.6558 0.654578 17.3785 0.339996 17.08C0.339996 17.08 0.439985 17.14 0.609985 17.28L1.35999 17.85C2.00999 18.33 2.99999 18.98 4.23999 19.76C5.72516 20.6295 7.11307 21.6553 8.38 22.82C9.12442 23.5267 9.75219 24.3469 10.24 25.25C10.7192 26.2329 11.0882 27.2659 11.34 28.33C11.7691 30.3891 12.8916 32.2387 14.52 33.57C15.96 34.85 17.4 35.86 18.42 36.93C19.2769 37.7351 19.9578 38.7089 20.42 39.79C20.5763 40.1773 20.6773 40.5846 20.72 41Z"/>
</mask>
<path d="M20.72 41C20.6228 40.5913 20.4958 40.1902 20.34 39.8C19.8568 38.7513 19.178 37.8044 18.34 37.01C17.34 36.01 15.88 35.01 14.42 33.7C12.7611 32.3455 11.6145 30.465 11.17 28.37C10.9176 27.3345 10.5556 26.3288 10.09 25.37C9.60809 24.4913 8.99807 23.6891 8.28 22.99C7.02567 21.8261 5.65515 20.794 4.19 19.91C2.96 19.12 1.98 18.45 1.34 17.91C0.988648 17.6558 0.654578 17.3785 0.339996 17.08C0.339996 17.08 0.439985 17.14 0.609985 17.28L1.35999 17.85C2.00999 18.33 2.99999 18.98 4.23999 19.76C5.72516 20.6295 7.11307 21.6553 8.38 22.82C9.12442 23.5267 9.75219 24.3469 10.24 25.25C10.7192 26.2329 11.0882 27.2659 11.34 28.33C11.7691 30.3891 12.8916 32.2387 14.52 33.57C15.96 34.85 17.4 35.86 18.42 36.93C19.2769 37.7351 19.9578 38.7089 20.42 39.79C20.5763 40.1773 20.6773 40.5846 20.72 41Z" fill="#1C2622"/>
<path d="M20.72 41L19.7471 41.2314L21.7148 40.8977L20.72 41ZM20.34 39.8L21.2687 39.4292L21.2591 39.4051L21.2482 39.3815L20.34 39.8ZM18.34 37.01L17.6329 37.7171L17.6423 37.7266L17.652 37.7358L18.34 37.01ZM14.42 33.7L15.0879 32.9557L15.0705 32.9402L15.0525 32.9254L14.42 33.7ZM11.17 28.37L12.1482 28.1624L12.1451 28.1478L12.1416 28.1332L11.17 28.37ZM10.09 25.37L10.9896 24.9332L10.9787 24.9109L10.9668 24.8891L10.09 25.37ZM8.28 22.99L8.9776 22.2735L8.969 22.2651L8.9602 22.257L8.28 22.99ZM4.19 19.91L3.64959 20.7514L3.66139 20.759L3.6734 20.7662L4.19 19.91ZM1.34 17.91L1.98487 17.1457L1.95638 17.1217L1.92618 17.0998L1.34 17.91ZM0.339996 17.08L0.854611 16.2226L-0.348337 17.8054L0.339996 17.08ZM0.609985 17.28L-0.0257219 18.0519L-0.0106489 18.0643L0.00489715 18.0762L0.609985 17.28ZM1.35999 17.85L0.75484 18.6462L0.765942 18.6544L1.35999 17.85ZM4.23999 19.76L3.70754 20.6065L3.72103 20.615L3.73478 20.623L4.23999 19.76ZM8.38 22.82L9.06851 22.0948L9.06269 22.0893L9.05679 22.0838L8.38 22.82ZM10.24 25.25L11.1388 24.8117L11.1297 24.7931L11.1198 24.7748L10.24 25.25ZM11.34 28.33L12.319 28.126L12.3162 28.1128L12.3131 28.0997L11.34 28.33ZM14.52 33.57L15.1844 32.8226L15.1689 32.8089L15.1529 32.7958L14.52 33.57ZM18.42 36.93L17.6962 37.62L17.7152 37.6399L17.7353 37.6588L18.42 36.93ZM20.42 39.79L21.3473 39.4158L21.3435 39.4063L21.3395 39.3969L20.42 39.79ZM21.6929 40.7686C21.5843 40.3124 21.4426 39.8647 21.2687 39.4292L19.4113 40.1708C19.549 40.5156 19.6612 40.8701 19.7471 41.2314L21.6929 40.7686ZM21.2482 39.3815C20.7118 38.2173 19.9582 37.1661 19.028 36.2843L17.652 37.7358C18.3977 38.4426 19.0018 39.2853 19.4318 40.2185L21.2482 39.3815ZM19.0471 36.3029C18.5021 35.7579 17.8442 35.2248 17.1777 34.6908C16.498 34.1463 15.7926 33.588 15.0879 32.9557L13.7522 34.4443C14.5075 35.122 15.262 35.7188 15.9273 36.2517C16.6058 36.7953 17.1779 37.2622 17.6329 37.7171L19.0471 36.3029ZM15.0525 32.9254C13.5701 31.715 12.5455 30.0346 12.1482 28.1624L10.1918 28.5776C10.6836 30.8954 11.9522 32.9759 13.7875 34.4746L15.0525 32.9254ZM12.1416 28.1332C11.8723 27.0286 11.4861 25.9559 10.9896 24.9332L9.19044 25.8068C9.62497 26.7017 9.96289 27.6403 10.1985 28.6068L12.1416 28.1332ZM10.9668 24.8891C10.4372 23.9234 9.76677 23.0419 8.9776 22.2735L7.5824 23.7065C8.22938 24.3364 8.77899 25.0591 9.21319 25.8508L10.9668 24.8891ZM8.9602 22.257C7.65569 21.0465 6.23035 19.9731 4.7066 19.0538L3.6734 20.7662C5.07995 21.6149 6.39564 22.6056 7.5998 23.723L8.9602 22.257ZM4.73041 19.0686C3.50007 18.2784 2.56985 17.6393 1.98487 17.1457L0.695125 18.6743C1.39014 19.2607 2.41994 19.9616 3.64959 20.7514L4.73041 19.0686ZM1.92618 17.0998C1.61074 16.8716 1.31079 16.6226 1.02833 16.3546L-0.348337 17.8054C-0.00163695 18.1344 0.366554 18.44 0.753808 18.7202L1.92618 17.0998ZM0.339996 17.08C-0.174618 17.9374 -0.174734 17.9373 -0.174851 17.9373C-0.174889 17.9372 -0.175005 17.9372 -0.175081 17.9371C-0.175234 17.937 -0.175385 17.9369 -0.175535 17.9369C-0.175834 17.9367 -0.176128 17.9365 -0.176416 17.9363C-0.176991 17.936 -0.177542 17.9356 -0.178069 17.9353C-0.179123 17.9347 -0.180081 17.9341 -0.180945 17.9336C-0.182671 17.9325 -0.184018 17.9317 -0.184992 17.9311C-0.18694 17.9299 -0.187397 17.9295 -0.186418 17.9302C-0.184462 17.9315 -0.176761 17.9365 -0.163764 17.9456C-0.137779 17.9639 -0.0905684 17.9985 -0.0257219 18.0519L1.24569 16.5081C1.14054 16.4215 1.05275 16.3561 0.986245 16.3093C0.952995 16.286 0.925074 16.2673 0.90297 16.2529C0.891919 16.2457 0.882322 16.2396 0.874242 16.2346C0.870202 16.2321 0.86654 16.2298 0.863266 16.2278C0.861629 16.2268 0.860088 16.2259 0.858645 16.225C0.857924 16.2246 0.857227 16.2241 0.856554 16.2237C0.856218 16.2235 0.855888 16.2233 0.855564 16.2231C0.855402 16.223 0.855242 16.2229 0.855083 16.2228C0.855003 16.2228 0.854885 16.2227 0.854846 16.2227C0.854728 16.2226 0.854611 16.2226 0.339996 17.08ZM0.00489715 18.0762L0.754897 18.6462L1.96507 17.0538L1.21507 16.4838L0.00489715 18.0762ZM0.765942 18.6544C1.44839 19.1584 2.46584 19.8254 3.70754 20.6065L4.77244 18.9135C3.53414 18.1346 2.57158 17.5016 1.95403 17.0456L0.765942 18.6544ZM3.73478 20.623C5.1584 21.4564 6.4888 22.4397 7.70322 23.5562L9.05679 22.0838C7.73735 20.8708 6.29192 19.8025 4.7452 18.897L3.73478 20.623ZM7.6915 23.5452C8.35933 24.1792 8.92251 24.915 9.36013 25.7252L11.1198 24.7748C10.5819 23.7787 9.88951 22.8742 9.06851 22.0948L7.6915 23.5452ZM9.34114 25.6883C9.78804 26.6048 10.132 27.568 10.3669 28.5603L12.3131 28.0997C12.0443 26.9637 11.6504 25.861 11.1388 24.8117L9.34114 25.6883ZM10.361 28.534C10.8368 30.8172 12.0814 32.8681 13.887 34.3442L15.1529 32.7958C13.7017 31.6094 12.7014 29.961 12.319 28.126L10.361 28.534ZM13.8556 34.3174C14.5956 34.9752 15.3405 35.5677 15.9942 36.1026C16.6613 36.6486 17.2332 37.1342 17.6962 37.62L19.1438 36.24C18.5869 35.6557 17.9287 35.1014 17.2608 34.5549C16.5795 33.9973 15.8843 33.4448 15.1844 32.8226L13.8556 34.3174ZM17.7353 37.6588C18.4915 38.3694 19.0926 39.2289 19.5005 40.1831L21.3395 39.3969C20.8231 38.1889 20.0622 37.1008 19.1048 36.2012L17.7353 37.6588ZM19.4927 40.1642C19.6138 40.4645 19.6921 40.7802 19.7253 41.1023L21.7148 40.8977C21.6624 40.3889 21.5388 39.8901 21.3473 39.4158L19.4927 40.1642Z" fill="#222222" mask="url(#path-13-inside-6_75_21)"/>
<path d="M9.25 40.07V36.12H32.51V40.07H9.25Z" fill="#FCFCFC" stroke="#222222"/>
<path d="M14.1172 56.71L11.6452 41.06H30.2114L27.9179 56.71H14.1172Z" fill="#FCFCFC" stroke="#222222"/>
<mask id="path-17-inside-7_75_21" fill="white">
<path d="M31.52 40.56C28.1104 40.8302 24.689 40.9203 21.27 40.83C17.851 40.9203 14.4295 40.8302 11.02 40.56C11.02 40.42 15.61 40.3 21.27 40.3C26.93 40.3 31.52 40.42 31.52 40.56Z"/>
</mask>
<path d="M31.52 40.56C28.1104 40.8302 24.689 40.9203 21.27 40.83C17.851 40.9203 14.4295 40.8302 11.02 40.56C11.02 40.42 15.61 40.3 21.27 40.3C26.93 40.3 31.52 40.42 31.52 40.56Z" fill="#1C2622"/>
<path d="M31.52 40.56L31.599 41.5569L32.52 41.4839V40.56H31.52ZM21.27 40.83L21.2964 39.8303L21.27 39.8296L21.2436 39.8303L21.27 40.83ZM11.02 40.56H10.02V41.4839L10.941 41.5569L11.02 40.56ZM31.441 39.5631C28.0665 39.8305 24.6803 39.9197 21.2964 39.8303L21.2436 41.8296C24.6978 41.9209 28.1544 41.8299 31.599 41.5569L31.441 39.5631ZM21.2436 39.8303C17.8597 39.9197 14.4735 39.8305 11.099 39.5631L10.941 41.5569C14.3856 41.8299 17.8422 41.9209 21.2964 41.8296L21.2436 39.8303ZM12.02 40.56C12.02 40.9254 11.8285 41.1648 11.7223 41.2686C11.6169 41.3716 11.5144 41.4248 11.4728 41.4452C11.3843 41.4885 11.3149 41.5043 11.3107 41.5053C11.2865 41.5112 11.2911 41.5084 11.3495 41.5013C11.4545 41.4884 11.631 41.4737 11.8851 41.4585C12.387 41.4286 13.1243 41.4008 14.0481 41.3772C15.8923 41.3299 18.4459 41.3 21.27 41.3V39.3C18.4341 39.3 15.8627 39.33 13.9969 39.3778C13.0657 39.4017 12.3018 39.4301 11.7661 39.4621C11.5015 39.4779 11.2752 39.4955 11.107 39.516C11.0289 39.5256 10.9293 39.5396 10.8351 39.5627C10.796 39.5723 10.7001 39.5967 10.5939 39.6487C10.5434 39.6734 10.4342 39.7309 10.3244 39.8383C10.2137 39.9465 10.02 40.1902 10.02 40.56H12.02ZM21.27 41.3C24.0941 41.3 26.6477 41.3299 28.4919 41.3772C29.4157 41.4008 30.153 41.4286 30.6548 41.4585C30.909 41.4737 31.0855 41.4884 31.1905 41.5013C31.2489 41.5084 31.2534 41.5112 31.2292 41.5053C31.2251 41.5043 31.1557 41.4885 31.0672 41.4452C31.0256 41.4248 30.9231 41.3716 30.8177 41.2686C30.7115 41.1648 30.52 40.9254 30.52 40.56H32.52C32.52 40.1902 32.3263 39.9465 32.2156 39.8383C32.1058 39.7309 31.9966 39.6734 31.9461 39.6487C31.8399 39.5967 31.744 39.5723 31.7049 39.5627C31.6107 39.5396 31.5111 39.5256 31.4329 39.516C31.2648 39.4955 31.0385 39.4779 30.7739 39.4621C30.2382 39.4301 29.4743 39.4017 28.5431 39.3778C26.6773 39.33 24.1059 39.3 21.27 39.3V41.3Z" fill="#222222" mask="url(#path-17-inside-7_75_21)"/>
</svg>
