<svg width="219" height="23" viewBox="0 0 219 23" fill="none" xmlns="http://www.w3.org/2000/svg">
<path d="M-0.01 3.91V2.29H15.29L15.5 7.45H13.01L12.41 3.97H7.4C7.38 5.11 7.36 6.26 7.34 7.42C7.34 8.58 7.34 9.75 7.34 10.93H10.58L10.94 8.59H12.68V15.04H10.94L10.58 12.7H7.34C7.34 14.08 7.34 15.39 7.34 16.63C7.36 17.87 7.38 19.1 7.4 20.32H13.01L13.61 16.84H16.1L15.89 22H-0.01V20.38L2.24 20.14C2.28 18.92 2.3 17.69 2.3 16.45C2.3 15.21 2.3 13.96 2.3 12.7V11.59C2.3 10.35 2.3 9.11 2.3 7.87C2.3 6.61 2.28 5.37 2.24 4.15L-0.01 3.91ZM29.2918 22.42C27.5518 22.42 26.4518 21.7 25.9918 20.26C25.3518 20.94 24.7318 21.48 24.1318 21.88C23.5518 22.26 22.7418 22.45 21.7018 22.45C20.5418 22.45 19.5918 22.12 18.8518 21.46C18.1318 20.8 17.7718 19.85 17.7718 18.61C17.7718 17.89 17.9318 17.24 18.2518 16.66C18.5718 16.08 19.1518 15.54 19.9918 15.04C20.8318 14.54 22.0218 14.07 23.5618 13.63C23.8618 13.53 24.2118 13.43 24.6118 13.33C25.0118 13.23 25.4218 13.13 25.8418 13.03V12.04C25.8418 10.7 25.6718 9.79 25.3318 9.31C25.0118 8.83 24.3718 8.59 23.4118 8.59C23.2718 8.59 23.1418 8.59 23.0218 8.59C22.9018 8.59 22.7618 8.6 22.6018 8.62L22.4518 9.94C22.4318 10.92 22.2018 11.63 21.7618 12.07C21.3418 12.51 20.8418 12.73 20.2618 12.73C19.1618 12.73 18.4918 12.23 18.2518 11.23C18.3318 9.99 18.9618 8.98 20.1418 8.2C21.3218 7.42 22.9918 7.03 25.1518 7.03C27.0718 7.03 28.4418 7.47 29.2618 8.35C30.1018 9.23 30.5218 10.68 30.5218 12.7V19.42C30.5218 20 30.7418 20.29 31.1818 20.29C31.3418 20.29 31.4918 20.25 31.6318 20.17C31.7718 20.07 31.9218 19.89 32.0818 19.63L32.8918 20.17C32.5318 20.97 32.0618 21.55 31.4818 21.91C30.9218 22.25 30.1918 22.42 29.2918 22.42ZM22.2118 17.83C22.2118 18.57 22.3818 19.12 22.7218 19.48C23.0818 19.84 23.5118 20.02 24.0118 20.02C24.2318 20.02 24.4618 19.97 24.7018 19.87C24.9418 19.77 25.3218 19.54 25.8418 19.18V14.32C25.5818 14.4 25.3218 14.49 25.0618 14.59C24.8218 14.67 24.6118 14.75 24.4318 14.83C23.7518 15.11 23.2118 15.51 22.8118 16.03C22.4118 16.53 22.2118 17.13 22.2118 17.83ZM33.5893 22V20.59L35.2393 20.26C35.2593 19.52 35.2693 18.73 35.2693 17.89C35.2693 17.05 35.2693 16.32 35.2693 15.7V13.93C35.2693 13.37 35.2593 12.91 35.2393 12.55C35.2393 12.19 35.2293 11.86 35.2093 11.56C35.2093 11.24 35.1993 10.88 35.1793 10.48L33.3493 10.21V9.04L39.2593 7.03L39.7993 7.36L40.0693 10.9C40.4893 9.62 41.0793 8.66 41.8393 8.02C42.5993 7.36 43.3493 7.03 44.0893 7.03C44.7493 7.03 45.3193 7.22 45.7993 7.6C46.2793 7.96 46.5793 8.51 46.6993 9.25C46.6793 10.03 46.4693 10.64 46.0693 11.08C45.6693 11.5 45.1693 11.71 44.5693 11.71C43.7293 11.71 42.9593 11.24 42.2593 10.3L42.0793 10.06C41.6393 10.48 41.2293 11.01 40.8493 11.65C40.4893 12.29 40.2293 12.96 40.0693 13.66V15.7C40.0693 16.32 40.0693 17.03 40.0693 17.83C40.0693 18.63 40.0793 19.38 40.0993 20.08L42.4693 20.59V22H33.5893ZM53.4404 22.45C52.1004 22.45 51.0504 22.13 50.2904 21.49C49.5304 20.83 49.1504 19.76 49.1504 18.28C49.1504 17.76 49.1504 17.28 49.1504 16.84C49.1704 16.38 49.1804 15.86 49.1804 15.28V9.55H47.2304V7.78L49.4504 7.48L50.9504 3.28H54.0104L53.9504 7.51H57.1004V9.55H53.9504V17.95C53.9504 18.65 54.0904 19.17 54.3704 19.51C54.6704 19.83 55.0404 19.99 55.4804 19.99C56.0004 19.99 56.5404 19.77 57.1004 19.33L57.8504 20.05C57.4504 20.81 56.8904 21.4 56.1704 21.82C55.4704 22.24 54.5604 22.45 53.4404 22.45ZM58.4923 22V20.59L60.1123 20.23C60.1323 19.51 60.1423 18.73 60.1423 17.89C60.1423 17.05 60.1423 16.32 60.1423 15.7V3.13L58.2823 2.83V1.57L64.4923 0.22L64.9723 0.519999L64.8523 4.72V9.55C65.6523 8.61 66.4223 7.96 67.1623 7.6C67.9223 7.22 68.7423 7.03 69.6223 7.03C70.9423 7.03 72.0023 7.46 72.8023 8.32C73.6023 9.18 74.0023 10.47 74.0023 12.19V15.7C74.0023 16.36 74.0023 17.11 74.0023 17.95C74.0023 18.77 74.0123 19.55 74.0323 20.29L75.5323 20.59V22H67.6423V20.59L69.2023 20.26C69.2223 19.52 69.2323 18.74 69.2323 17.92C69.2323 17.08 69.2323 16.34 69.2323 15.7V12.55C69.2323 11.57 69.1123 10.89 68.8723 10.51C68.6523 10.13 68.2323 9.94 67.6123 9.94C67.2123 9.94 66.7823 10.06 66.3223 10.3C65.8623 10.54 65.4023 10.88 64.9423 11.32V15.7C64.9423 16.32 64.9423 17.06 64.9423 17.92C64.9423 18.76 64.9523 19.55 64.9723 20.29L66.3823 20.59V22H58.4923Z" fill="#fafafa"/>
<path d="M87.3629 22.57C85.3029 22.57 83.4929 22.15 81.9329 21.31C80.3729 20.47 79.1529 19.27 78.2729 17.71C77.4129 16.15 76.9829 14.28 76.9829 12.1C76.9829 10 77.4029 8.18 78.2429 6.64C79.0829 5.08 80.3029 3.87 81.9029 3.01C83.5229 2.15 85.4629 1.72 87.7229 1.72C88.7029 1.72 89.6929 1.84 90.6929 2.08C91.7129 2.3 92.6529 2.64 93.5129 3.1L93.6329 7.78H91.3229L90.4529 3.88C89.7329 3.58 89.0129 3.43 88.2929 3.43C87.2129 3.43 86.2129 3.74 85.2929 4.36C84.3929 4.98 83.6629 5.93 83.1029 7.21C82.5629 8.47 82.2929 10.1 82.2929 12.1C82.2929 14.08 82.5529 15.72 83.0729 17.02C83.6129 18.32 84.3329 19.29 85.2329 19.93C86.1329 20.55 87.1329 20.86 88.2329 20.86C88.6729 20.86 89.0529 20.82 89.3729 20.74V19.45C89.3729 18.57 89.3629 17.7 89.3429 16.84C89.3429 15.98 89.3329 15.12 89.3129 14.26L86.6129 13.9V12.28H95.7629V13.9L94.2029 14.11C94.1829 15.01 94.1629 15.91 94.1429 16.81C94.1429 17.69 94.1429 18.6 94.1429 19.54V20.8C93.1029 21.4 92.0429 21.84 90.9629 22.12C89.8829 22.42 88.6829 22.57 87.3629 22.57ZM107.462 22.33L107.282 19.81C106.642 20.65 105.912 21.3 105.092 21.76C104.272 22.22 103.382 22.45 102.422 22.45C101.142 22.45 100.112 22.05 99.332 21.25C98.552 20.43 98.172 19.03 98.192 17.05L98.312 9.73L96.572 9.34V8.08L102.692 7.21L103.172 7.54L103.022 11.77V17.08C103.022 18 103.162 18.64 103.442 19C103.742 19.36 104.142 19.54 104.642 19.54C105.062 19.54 105.492 19.41 105.932 19.15C106.392 18.89 106.822 18.57 107.222 18.19L107.342 9.7L105.692 9.34V8.17L111.662 7.21L112.142 7.54L112.052 11.77V20.29L113.612 20.62V22.03L107.462 22.33ZM126.675 22.42C124.935 22.42 123.835 21.7 123.375 20.26C122.735 20.94 122.115 21.48 121.515 21.88C120.935 22.26 120.125 22.45 119.085 22.45C117.925 22.45 116.975 22.12 116.235 21.46C115.515 20.8 115.155 19.85 115.155 18.61C115.155 17.89 115.315 17.24 115.635 16.66C115.955 16.08 116.535 15.54 117.375 15.04C118.215 14.54 119.405 14.07 120.945 13.63C121.245 13.53 121.595 13.43 121.995 13.33C122.395 13.23 122.805 13.13 123.225 13.03V12.04C123.225 10.7 123.055 9.79 122.715 9.31C122.395 8.83 121.755 8.59 120.795 8.59C120.655 8.59 120.525 8.59 120.405 8.59C120.285 8.59 120.145 8.6 119.985 8.62L119.835 9.94C119.815 10.92 119.585 11.63 119.145 12.07C118.725 12.51 118.225 12.73 117.645 12.73C116.545 12.73 115.875 12.23 115.635 11.23C115.715 9.99 116.345 8.98 117.525 8.2C118.705 7.42 120.375 7.03 122.535 7.03C124.455 7.03 125.825 7.47 126.645 8.35C127.485 9.23 127.905 10.68 127.905 12.7V19.42C127.905 20 128.125 20.29 128.565 20.29C128.725 20.29 128.875 20.25 129.015 20.17C129.155 20.07 129.305 19.89 129.465 19.63L130.275 20.17C129.915 20.97 129.445 21.55 128.865 21.91C128.305 22.25 127.575 22.42 126.675 22.42ZM119.595 17.83C119.595 18.57 119.765 19.12 120.105 19.48C120.465 19.84 120.895 20.02 121.395 20.02C121.615 20.02 121.845 19.97 122.085 19.87C122.325 19.77 122.705 19.54 123.225 19.18V14.32C122.965 14.4 122.705 14.49 122.445 14.59C122.205 14.67 121.995 14.75 121.815 14.83C121.135 15.11 120.595 15.51 120.195 16.03C119.795 16.53 119.595 17.13 119.595 17.83ZM130.972 22V20.59L132.622 20.26C132.642 19.52 132.652 18.73 132.652 17.89C132.652 17.05 132.652 16.32 132.652 15.7V13.93C132.652 13.37 132.642 12.91 132.622 12.55C132.622 12.19 132.612 11.86 132.592 11.56C132.592 11.24 132.582 10.88 132.562 10.48L130.732 10.21V9.04L136.642 7.03L137.182 7.36L137.452 10.9C137.872 9.62 138.462 8.66 139.222 8.02C139.982 7.36 140.732 7.03 141.472 7.03C142.132 7.03 142.702 7.22 143.182 7.6C143.662 7.96 143.962 8.51 144.082 9.25C144.062 10.03 143.852 10.64 143.452 11.08C143.052 11.5 142.552 11.71 141.952 11.71C141.112 11.71 140.342 11.24 139.642 10.3L139.462 10.06C139.022 10.48 138.612 11.01 138.232 11.65C137.872 12.29 137.612 12.96 137.452 13.66V15.7C137.452 16.32 137.452 17.03 137.452 17.83C137.452 18.63 137.462 19.38 137.482 20.08L139.852 20.59V22H130.972ZM149.549 14.83C149.549 16.47 149.839 17.72 150.419 18.58C150.999 19.42 151.749 19.84 152.669 19.84C153.349 19.84 153.969 19.61 154.529 19.15V10.21C153.989 9.79 153.399 9.58 152.759 9.58C151.839 9.58 151.069 10.01 150.449 10.87C149.849 11.73 149.549 13.05 149.549 14.83ZM154.919 22.33L154.679 20.62C153.519 21.84 152.109 22.45 150.449 22.45C149.329 22.45 148.309 22.16 147.389 21.58C146.489 21 145.779 20.15 145.259 19.03C144.739 17.89 144.479 16.51 144.479 14.89C144.479 13.25 144.789 11.85 145.409 10.69C146.049 9.51 146.869 8.61 147.869 7.99C148.889 7.35 149.959 7.03 151.079 7.03C151.859 7.03 152.539 7.17 153.119 7.45C153.699 7.71 154.229 8.1 154.709 8.62V3.13L152.609 2.83V1.57L158.939 0.22L159.419 0.519999L159.299 4.72V20.29L160.769 20.59V22L154.919 22.33ZM162.322 22V20.59L163.942 20.23C163.962 19.51 163.972 18.73 163.972 17.89C163.972 17.05 163.972 16.32 163.972 15.7V14.26C163.972 13.44 163.962 12.76 163.942 12.22C163.942 11.66 163.922 11.08 163.882 10.48L162.022 10.21V9.04L168.322 7.03L168.832 7.36L168.742 11.71V15.7C168.742 16.32 168.742 17.06 168.742 17.92C168.742 18.76 168.752 19.55 168.772 20.29L170.272 20.59V22H162.322ZM166.312 4.81C165.612 4.81 165.012 4.59 164.512 4.15C164.012 3.69 163.762 3.12 163.762 2.44C163.762 1.74 164.012 1.17 164.512 0.729998C165.012 0.269998 165.612 0.0399984 166.312 0.0399984C167.012 0.0399984 167.612 0.269998 168.112 0.729998C168.612 1.17 168.862 1.74 168.862 2.44C168.862 3.12 168.612 3.69 168.112 4.15C167.612 4.59 167.012 4.81 166.312 4.81ZM183.364 22.42C181.624 22.42 180.524 21.7 180.064 20.26C179.424 20.94 178.804 21.48 178.204 21.88C177.624 22.26 176.814 22.45 175.774 22.45C174.614 22.45 173.664 22.12 172.924 21.46C172.204 20.8 171.844 19.85 171.844 18.61C171.844 17.89 172.004 17.24 172.324 16.66C172.644 16.08 173.224 15.54 174.064 15.04C174.904 14.54 176.094 14.07 177.634 13.63C177.934 13.53 178.284 13.43 178.684 13.33C179.084 13.23 179.494 13.13 179.914 13.03V12.04C179.914 10.7 179.744 9.79 179.404 9.31C179.084 8.83 178.444 8.59 177.484 8.59C177.344 8.59 177.214 8.59 177.094 8.59C176.974 8.59 176.834 8.6 176.674 8.62L176.524 9.94C176.504 10.92 176.274 11.63 175.834 12.07C175.414 12.51 174.914 12.73 174.334 12.73C173.234 12.73 172.564 12.23 172.324 11.23C172.404 9.99 173.034 8.98 174.214 8.2C175.394 7.42 177.064 7.03 179.224 7.03C181.144 7.03 182.514 7.47 183.334 8.35C184.174 9.23 184.594 10.68 184.594 12.7V19.42C184.594 20 184.814 20.29 185.254 20.29C185.414 20.29 185.564 20.25 185.704 20.17C185.844 20.07 185.994 19.89 186.154 19.63L186.964 20.17C186.604 20.97 186.134 21.55 185.554 21.91C184.994 22.25 184.264 22.42 183.364 22.42ZM176.284 17.83C176.284 18.57 176.454 19.12 176.794 19.48C177.154 19.84 177.584 20.02 178.084 20.02C178.304 20.02 178.534 19.97 178.774 19.87C179.014 19.77 179.394 19.54 179.914 19.18V14.32C179.654 14.4 179.394 14.49 179.134 14.59C178.894 14.67 178.684 14.75 178.504 14.83C177.824 15.11 177.284 15.51 176.884 16.03C176.484 16.53 176.284 17.13 176.284 17.83ZM187.692 22V20.59L189.312 20.23C189.332 19.51 189.342 18.73 189.342 17.89C189.342 17.05 189.342 16.32 189.342 15.7V13.96C189.342 13.14 189.332 12.51 189.312 12.07C189.312 11.61 189.292 11.08 189.252 10.48L187.422 10.21V9.04L193.332 7.03L193.872 7.36L194.052 9.52C194.832 8.6 195.602 7.96 196.362 7.6C197.142 7.22 197.972 7.03 198.852 7.03C200.152 7.03 201.192 7.46 201.972 8.32C202.772 9.18 203.172 10.47 203.172 12.19V15.7C203.172 16.36 203.172 17.11 203.172 17.95C203.172 18.77 203.182 19.55 203.202 20.29L204.702 20.59V22H196.782V20.59L198.342 20.26C198.362 19.52 198.372 18.74 198.372 17.92C198.372 17.08 198.372 16.34 198.372 15.7V12.55C198.372 11.59 198.242 10.92 197.982 10.54C197.722 10.14 197.302 9.94 196.722 9.94C195.942 9.94 195.082 10.3 194.142 11.02V15.7C194.142 16.32 194.142 17.06 194.142 17.92C194.142 18.76 194.152 19.55 194.172 20.29L195.582 20.59V22H187.692ZM211.458 22.45C209.558 22.45 207.818 21.99 206.238 21.07L206.328 17.41H208.728L209.238 20.38C209.598 20.52 209.958 20.63 210.318 20.71C210.678 20.77 211.068 20.8 211.488 20.8C212.348 20.8 213.008 20.66 213.468 20.38C213.928 20.08 214.158 19.63 214.158 19.03C214.158 18.57 213.988 18.17 213.648 17.83C213.308 17.49 212.638 17.18 211.638 16.9L210.018 16.42C208.858 16.08 207.958 15.53 207.318 14.77C206.698 14.01 206.388 13.07 206.388 11.95C206.388 10.57 206.928 9.41 208.008 8.47C209.088 7.51 210.638 7.03 212.658 7.03C213.538 7.03 214.348 7.14 215.088 7.36C215.848 7.56 216.618 7.86 217.398 8.26L217.188 11.53H214.788L214.188 8.95C213.768 8.79 213.218 8.71 212.538 8.71C211.858 8.71 211.308 8.85 210.888 9.13C210.488 9.41 210.288 9.83 210.288 10.39C210.288 10.79 210.448 11.15 210.768 11.47C211.088 11.77 211.768 12.08 212.808 12.4L214.278 12.82C215.698 13.24 216.718 13.84 217.338 14.62C217.958 15.4 218.268 16.35 218.268 17.47C218.268 19.05 217.658 20.28 216.438 21.16C215.238 22.02 213.578 22.45 211.458 22.45Z" fill="#06a52e"/>
</svg>